<svg width="1440" height="4856" viewBox="0 0 1440 4856" fill="none" xmlns="http://www.w3.org/2000/svg">
<mask id="mask0_296_3" style="mask-type:luminance" maskUnits="userSpaceOnUse" x="-151" y="0" width="1741" height="4856">
<path d="M-151 0H1590V4856H-151V0Z" fill="white"/>
</mask>
<g mask="url(#mask0_296_3)">
<path d="M-112.066 2000H-240V2210.38M-112.066 2000V2210.38M-112.066 2000H15.8684M-240 2210.38H-112.066M-240 2210.38V2420.75M-112.066 2210.38H15.8684M-112.066 2210.38V2420.75M15.8684 2000V2210.38M15.8684 2000H143.803M15.8684 2210.38H143.803M15.8684 2210.38V2420.75M-112.066 2420.75H-240M-112.066 2420.75H15.8684M-112.066 2420.75V2631.13M-240 2420.75V2631.13M143.803 2000V2210.38M143.803 2000H271.737M143.803 2210.38H271.737M143.803 2210.38V2420.75M15.8684 2420.75H143.803M15.8684 2420.75V2631.13M271.737 2000V2210.38M271.737 2000H399.671M271.737 2210.38H399.671M271.737 2210.38V2420.75M143.803 2420.75H271.737M143.803 2420.75V2631.13M399.671 2000V2210.38M399.671 2000H527.605M399.671 2210.38H527.605M399.671 2210.38V2420.75M271.737 2420.75H399.671M271.737 2420.75V2631.13M527.605 2000V2210.38M527.605 2000H655.539M527.605 2210.38H655.539M527.605 2210.38V2420.75M399.671 2420.75H527.605M399.671 2420.75V2631.13M655.539 2000V2210.38M655.539 2000H783.474M655.539 2210.38H783.474M655.539 2210.38V2420.75M527.605 2420.75H655.539M527.605 2420.75V2631.13M783.474 2000V2210.38M783.474 2000H911.408M783.474 2210.38H911.408M783.474 2210.38V2420.75M655.539 2420.75H783.474M655.539 2420.75V2631.13M911.408 2000V2210.38M911.408 2000H1039.34M911.408 2210.38H1039.34M911.408 2210.38V2420.75M783.474 2420.75H911.408M783.474 2420.75V2631.13M1039.34 2000V2210.38M1039.34 2000H1167.28M1039.34 2210.38H1167.28M1039.34 2210.38V2420.75M911.408 2420.75H1039.34M911.408 2420.75V2631.13M1167.28 2000V2210.38M1167.28 2000H1295.21M1167.28 2210.38H1295.21M1167.28 2210.38V2420.75M1039.34 2420.75H1167.28M1039.34 2420.75V2631.13M1295.21 2000V2210.38M1295.21 2000H1423.14M1295.21 2210.38H1423.14M1295.21 2210.38V2420.75M1167.28 2420.75H1295.21M1167.28 2420.75V2631.13M1423.14 2000V2210.38M1423.14 2000H1551.08M1423.14 2210.38H1551.08M1423.14 2210.38V2420.75M1295.21 2420.75H1423.14M1295.21 2420.75V2631.13M1551.08 2000V2210.38M1551.08 2000H1679.01V2210.38M1551.08 2210.38H1679.01M1551.08 2210.38V2420.75M1423.14 2420.75H1551.08M1423.14 2420.75V2631.13M1679.01 2210.38V2420.75M1551.08 2420.75H1679.01M1551.08 2420.75V2631.13M1679.01 2420.75V2631.13M-112.066 2631.13H-240M-112.066 2631.13H15.8684M-112.066 2631.13V2841.5M-240 2631.13V2841.5M15.8684 2631.13H143.803M15.8684 2631.13V2841.5M143.803 2631.13H271.737M143.803 2631.13V2841.5M271.737 2631.13H399.671M271.737 2631.13V2841.5M399.671 2631.13H527.605M399.671 2631.13V2841.5M527.605 2631.13H655.539M527.605 2631.13V2841.5M655.539 2631.13H783.474M655.539 2631.13V2841.5M783.474 2631.13H911.408M783.474 2631.13V2841.5M911.408 2631.13H1039.34M911.408 2631.13V2841.5M1039.34 2631.13H1167.28M1039.34 2631.13V2841.5M1167.28 2631.13H1295.21M1167.28 2631.13V2841.5M1295.21 2631.13H1423.14M1295.21 2631.13V2841.5M1423.14 2631.13H1551.08M1423.14 2631.13V2841.5M1551.08 2631.13H1679.01M1551.08 2631.13V2841.5M1679.01 2631.13V2841.5M-112.066 2841.5H-240M-112.066 2841.5H15.8684M-112.066 2841.5V3051.87M-240 2841.5V3051.87M15.8684 2841.5H143.803M15.8684 2841.5V3051.87M143.803 2841.5H271.737M143.803 2841.5V3051.87M271.737 2841.5H399.671M271.737 2841.5V3051.87M399.671 2841.5H527.605M399.671 2841.5V3051.87M527.605 2841.5H655.539M527.605 2841.5V3051.87M655.539 2841.5H783.474M655.539 2841.5V3051.87M783.474 2841.5H911.408M783.474 2841.5V3051.87M911.408 2841.5H1039.34M911.408 2841.5V3051.87M1039.34 2841.5H1167.28M1039.34 2841.5V3051.87M1167.28 2841.5H1295.21M1167.28 2841.5V3051.87M1295.21 2841.5H1423.14M1295.21 2841.5V3051.87M1423.14 2841.5H1551.08M1423.14 2841.5V3051.87M1551.08 2841.5H1679.01M1551.08 2841.5V3051.87M1679.01 2841.5V3051.87M-112.066 3051.87H-240M-112.066 3051.87H15.8684M-112.066 3051.87V3262.25M-240 3051.87V3262.25M15.8684 3051.87H143.803M15.8684 3051.87V3262.25M143.803 3051.87H271.737M143.803 3051.87V3262.25M271.737 3051.87H399.671M271.737 3051.87V3262.25M399.671 3051.87H527.605M399.671 3051.87V3262.25M527.605 3051.87H655.539M527.605 3051.87V3262.25M655.539 3051.87H783.474M655.539 3051.87V3262.25M783.474 3051.87H911.408M783.474 3051.87V3262.25M911.408 3051.87H1039.34M911.408 3051.87V3262.25M1039.34 3051.87H1167.28M1039.34 3051.87V3262.25M1167.28 3051.87H1295.21M1167.28 3051.87V3262.25M1295.21 3051.87H1423.14M1295.21 3051.87V3262.25M1423.14 3051.87H1551.08M1423.14 3051.87V3262.25M1551.08 3051.87H1679.01M1551.08 3051.87V3262.25M1679.01 3051.87V3262.25M-112.066 3262.25H-240M-112.066 3262.25H15.8684M-112.066 3262.25V3472.62M-240 3262.25V3472.62M15.8684 3262.25H143.803M15.8684 3262.25V3472.62M143.803 3262.25H271.737M143.803 3262.25V3472.62M271.737 3262.25H399.671M271.737 3262.25V3472.62M399.671 3262.25H527.605M399.671 3262.25V3472.62M527.605 3262.25H655.539M527.605 3262.25V3472.62M655.539 3262.25H783.474M655.539 3262.25V3472.62M783.474 3262.25H911.408M783.474 3262.25V3472.62M911.408 3262.25H1039.34M911.408 3262.25V3472.62M1039.34 3262.25H1167.28M1039.34 3262.25V3472.62M1167.28 3262.25H1295.21M1167.28 3262.25V3472.62M1295.21 3262.25H1423.14M1295.21 3262.25V3472.62M1423.14 3262.25H1551.08M1423.14 3262.25V3472.62M1551.08 3262.25H1679.01M1551.08 3262.25V3472.62M1679.01 3262.25V3472.62M-112.066 3472.62H-240M-112.066 3472.62H15.8684M-112.066 3472.62V3683M-240 3472.62V3683M15.8684 3472.62H143.803M15.8684 3472.62V3683M143.803 3472.62H271.737M143.803 3472.62V3683M271.737 3472.62H399.671M271.737 3472.62V3683M399.671 3472.62H527.605M399.671 3472.62V3683M527.605 3472.62H655.539M527.605 3472.62V3683M655.539 3472.62H783.474M655.539 3472.62V3683M783.474 3472.62H911.408M783.474 3472.62V3683M911.408 3472.62H1039.34M911.408 3472.62V3683M1039.34 3472.62H1167.28M1039.34 3472.62V3683M1167.28 3472.62H1295.21M1167.28 3472.62V3683M1295.21 3472.62H1423.14M1295.21 3472.62V3683M1423.14 3472.62H1551.08M1423.14 3472.62V3683M1551.08 3472.62H1679.01M1551.08 3472.62V3683M1679.01 3472.62V3683M-112.066 3683H-240M-112.066 3683H15.8684M-112.066 3683V3893.37M-240 3683V3893.37M15.8684 3683H143.803M15.8684 3683V3893.37M143.803 3683H271.737M143.803 3683V3893.37M271.737 3683H399.671M271.737 3683V3893.37M399.671 3683H527.605M399.671 3683V3893.37M527.605 3683H655.539M527.605 3683V3893.37M655.539 3683H783.474M655.539 3683V3893.37M783.474 3683H911.408M783.474 3683V3893.37M911.408 3683H1039.34M911.408 3683V3893.37M1039.34 3683H1167.28M1039.34 3683V3893.37M1167.28 3683H1295.21M1167.28 3683V3893.37M1295.21 3683H1423.14M1295.21 3683V3893.37M1423.14 3683H1551.08M1423.14 3683V3893.37M1551.08 3683H1679.01M1551.08 3683V3893.37M1679.01 3683V3893.37M-112.066 3893.37H-240M-112.066 3893.37H15.8684M-112.066 3893.37V4103.75M-240 3893.37V4103.75M15.8684 3893.37H143.803M15.8684 3893.37V4103.75M143.803 3893.37H271.737M143.803 3893.37V4103.75M271.737 3893.37H399.671M271.737 3893.37V4103.75M399.671 3893.37H527.605M399.671 3893.37V4103.75M527.605 3893.37H655.539M527.605 3893.37V4103.75M655.539 3893.37H783.474M655.539 3893.37V4103.75M783.474 3893.37H911.408M783.474 3893.37V4103.75M911.408 3893.37H1039.34M911.408 3893.37V4103.75M1039.34 3893.37H1167.28M1039.34 3893.37V4103.75M1167.28 3893.37H1295.21M1167.28 3893.37V4103.75M1295.21 3893.37H1423.14M1295.21 3893.37V4103.75M1423.14 3893.37H1551.08M1423.14 3893.37V4103.75M1551.08 3893.37H1679.01M1551.08 3893.37V4103.75M1679.01 3893.37V4103.75M-112.066 4103.75H-240M-112.066 4103.75H15.8684M-112.066 4103.75V4314.12M-240 4103.75V4314.12M15.8684 4103.75H143.803M15.8684 4103.75V4314.12M143.803 4103.75H271.737M143.803 4103.75V4314.12M271.737 4103.75H399.671M271.737 4103.75V4314.12M399.671 4103.75H527.605M399.671 4103.75V4314.12M527.605 4103.75H655.539M527.605 4103.75V4314.12M655.539 4103.75H783.474M655.539 4103.75V4314.12M783.474 4103.75H911.408M783.474 4103.75V4314.12M911.408 4103.75H1039.34M911.408 4103.75V4314.12M1039.34 4103.75H1167.28M1039.34 4103.75V4314.12M1167.28 4103.75H1295.21M1167.28 4103.75V4314.12M1295.21 4103.75H1423.14M1295.21 4103.75V4314.12M1423.14 4103.75H1551.08M1423.14 4103.75V4314.12M1551.08 4103.75H1679.01M1551.08 4103.75V4314.12M1679.01 4103.75V4314.12M-112.066 4314.12H-240M-112.066 4314.12H15.8684M-112.066 4314.12V4524.5M-240 4314.12V4524.5M15.8684 4314.12H143.803M15.8684 4314.12V4524.5M143.803 4314.12H271.737M143.803 4314.12V4524.5M271.737 4314.12H399.671M271.737 4314.12V4524.5M399.671 4314.12H527.605M399.671 4314.12V4524.5M527.605 4314.12H655.539M527.605 4314.12V4524.5M655.539 4314.12H783.474M655.539 4314.12V4524.5M783.474 4314.12H911.408M783.474 4314.12V4524.5M911.408 4314.12H1039.34M911.408 4314.12V4524.5M1039.34 4314.12H1167.28M1039.34 4314.12V4524.5M1167.28 4314.12H1295.21M1167.28 4314.12V4524.5M1295.21 4314.12H1423.14M1295.21 4314.12V4524.5M1423.14 4314.12H1551.08M1423.14 4314.12V4524.5M1551.08 4314.12H1679.01M1551.08 4314.12V4524.5M1679.01 4314.12V4524.5M-112.066 4524.5H-240M-112.066 4524.5H15.8684M-112.066 4524.5V4734.87M-240 4524.5V4734.87M15.8684 4524.5H143.803M15.8684 4524.5V4734.87M143.803 4524.5H271.737M143.803 4524.5V4734.87M271.737 4524.5H399.671M271.737 4524.5V4734.87M399.671 4524.5H527.605M399.671 4524.5V4734.87M527.605 4524.5H655.539M527.605 4524.5V4734.87M655.539 4524.5H783.474M655.539 4524.5V4734.87M783.474 4524.5H911.408M783.474 4524.5V4734.87M911.408 4524.5H1039.34M911.408 4524.5V4734.87M1039.34 4524.5H1167.28M1039.34 4524.5V4734.87M1167.28 4524.5H1295.21M1167.28 4524.5V4734.87M1295.21 4524.5H1423.14M1295.21 4524.5V4734.87M1423.14 4524.5H1551.08M1423.14 4524.5V4734.87M1551.08 4524.5H1679.01M1551.08 4524.5V4734.87M1679.01 4524.5V4734.87M-112.066 4734.87H-240M-112.066 4734.87H15.8684M-112.066 4734.87V4945.25M-240 4734.87V4945.25M15.8684 4734.87H143.803M15.8684 4734.87V4945.25M143.803 4734.87H271.737M143.803 4734.87V4945.25M271.737 4734.87H399.671M271.737 4734.87V4945.25M399.671 4734.87H527.605M399.671 4734.87V4945.25M527.605 4734.87H655.539M527.605 4734.87V4945.25M655.539 4734.87H783.474M655.539 4734.87V4945.25M783.474 4734.87H911.408M783.474 4734.87V4945.25M911.408 4734.87H1039.34M911.408 4734.87V4945.25M1039.34 4734.87H1167.28M1039.34 4734.87V4945.25M1167.28 4734.87H1295.21M1167.28 4734.87V4945.25M1295.21 4734.87H1423.14M1295.21 4734.87V4945.25M1423.14 4734.87H1551.08M1423.14 4734.87V4945.25M1551.08 4734.87H1679.01M1551.08 4734.87V4945.25M1679.01 4734.87V4945.25M-112.066 4945.25H-240M-112.066 4945.25H15.8684M-112.066 4945.25V5155.62M-240 4945.25V5155.62H-112.066M15.8684 4945.25H143.803M15.8684 4945.25V5155.62M143.803 4945.25H271.737M143.803 4945.25V5155.62M271.737 4945.25H399.671M271.737 4945.25V5155.62M399.671 4945.25H527.605M399.671 4945.25V5155.62M527.605 4945.25H655.539M527.605 4945.25V5155.62M655.539 4945.25H783.474M655.539 4945.25V5155.62M783.474 4945.25H911.408M783.474 4945.25V5155.62M911.408 4945.25H1039.34M911.408 4945.25V5155.62M1039.34 4945.25H1167.28M1039.34 4945.25V5155.62M1167.28 4945.25H1295.21M1167.28 4945.25V5155.62M1295.21 4945.25H1423.14M1295.21 4945.25V5155.62M1423.14 4945.25H1551.08M1423.14 4945.25V5155.62M1551.08 4945.25H1679.01M1551.08 4945.25V5155.62M1679.01 4945.25V5155.62H1551.08M-112.066 5155.62H15.8684M15.8684 5155.62H143.803M143.803 5155.62H271.737M271.737 5155.62H399.671M399.671 5155.62H527.605M527.605 5155.62H655.539M655.539 5155.62H783.474M783.474 5155.62H911.408M911.408 5155.62H1039.34M1039.34 5155.62H1167.28M1167.28 5155.62H1295.21M1295.21 5155.62H1423.14M1423.14 5155.62H1551.08" stroke="url(#paint0_radial_296_3)" stroke-opacity="0.2"/>
<path d="M-112.066 106H-240V316.376M-112.066 106V316.376M-112.066 106H15.8684M-240 316.376H-112.066M-240 316.376V526.749M-112.066 316.376H15.8684M-112.066 316.376V526.749M15.8684 106V316.376M15.8684 106H143.803M15.8684 316.376H143.803M15.8684 316.376V526.749M-112.066 526.749H-240M-112.066 526.749H15.8684M-112.066 526.749V737.125M-240 526.749V737.125M143.803 106V316.376M143.803 106H271.737M143.803 316.376H271.737M143.803 316.376V526.749M15.8684 526.749H143.803M15.8684 526.749V737.125M271.737 106V316.376M271.737 106H399.671M271.737 316.376H399.671M271.737 316.376V526.749M143.803 526.749H271.737M143.803 526.749V737.125M399.671 106V316.376M399.671 106H527.605M399.671 316.376H527.605M399.671 316.376V526.749M271.737 526.749H399.671M271.737 526.749V737.125M527.605 106V316.376M527.605 106H655.539M527.605 316.376H655.539M527.605 316.376V526.749M399.671 526.749H527.605M399.671 526.749V737.125M655.539 106V316.376M655.539 106H783.474M655.539 316.376H783.474M655.539 316.376V526.749M527.605 526.749H655.539M527.605 526.749V737.125M783.474 106V316.376M783.474 106H911.408M783.474 316.376H911.408M783.474 316.376V526.749M655.539 526.749H783.474M655.539 526.749V737.125M911.408 106V316.376M911.408 106H1039.34M911.408 316.376H1039.34M911.408 316.376V526.749M783.474 526.749H911.408M783.474 526.749V737.125M1039.34 106V316.376M1039.34 106H1167.28M1039.34 316.376H1167.28M1039.34 316.376V526.749M911.408 526.749H1039.34M911.408 526.749V737.125M1167.28 106V316.376M1167.28 106H1295.21M1167.28 316.376H1295.21M1167.28 316.376V526.749M1039.34 526.749H1167.28M1039.34 526.749V737.125M1295.21 106V316.376M1295.21 106H1423.14M1295.21 316.376H1423.14M1295.21 316.376V526.749M1167.28 526.749H1295.21M1167.28 526.749V737.125M1423.14 106V316.376M1423.14 106H1551.08M1423.14 316.376H1551.08M1423.14 316.376V526.749M1295.21 526.749H1423.14M1295.21 526.749V737.125M1551.08 106V316.376M1551.08 106H1679.01V316.376M1551.08 316.376H1679.01M1551.08 316.376V526.749M1423.14 526.749H1551.08M1423.14 526.749V737.125M1679.01 316.376V526.749M1551.08 526.749H1679.01M1551.08 526.749V737.125M1679.01 526.749V737.125M-112.066 737.125H-240M-112.066 737.125H15.8684M-112.066 737.125V947.498M-240 737.125V947.498M15.8684 737.125H143.803M15.8684 737.125V947.498M143.803 737.125H271.737M143.803 737.125V947.498M271.737 737.125H399.671M271.737 737.125V947.498M399.671 737.125H527.605M399.671 737.125V947.498M527.605 737.125H655.539M527.605 737.125V947.498M655.539 737.125H783.474M655.539 737.125V947.498M783.474 737.125H911.408M783.474 737.125V947.498M911.408 737.125H1039.34M911.408 737.125V947.498M1039.34 737.125H1167.28M1039.34 737.125V947.498M1167.28 737.125H1295.21M1167.28 737.125V947.498M1295.21 737.125H1423.14M1295.21 737.125V947.498M1423.14 737.125H1551.08M1423.14 737.125V947.498M1551.08 737.125H1679.01M1551.08 737.125V947.498M1679.01 737.125V947.498M-112.066 947.498H-240M-112.066 947.498H15.8684M-112.066 947.498V1157.87M-240 947.498V1157.87M15.8684 947.498H143.803M15.8684 947.498V1157.87M143.803 947.498H271.737M143.803 947.498V1157.87M271.737 947.498H399.671M271.737 947.498V1157.87M399.671 947.498H527.605M399.671 947.498V1157.87M527.605 947.498H655.539M527.605 947.498V1157.87M655.539 947.498H783.474M655.539 947.498V1157.87M783.474 947.498H911.408M783.474 947.498V1157.87M911.408 947.498H1039.34M911.408 947.498V1157.87M1039.34 947.498H1167.28M1039.34 947.498V1157.87M1167.28 947.498H1295.21M1167.28 947.498V1157.87M1295.21 947.498H1423.14M1295.21 947.498V1157.87M1423.14 947.498H1551.08M1423.14 947.498V1157.87M1551.08 947.498H1679.01M1551.08 947.498V1157.87M1679.01 947.498V1157.87M-112.066 1157.87H-240M-112.066 1157.87H15.8684M-112.066 1157.87V1368.25M-240 1157.87V1368.25M15.8684 1157.87H143.803M15.8684 1157.87V1368.25M143.803 1157.87H271.737M143.803 1157.87V1368.25M271.737 1157.87H399.671M271.737 1157.87V1368.25M399.671 1157.87H527.605M399.671 1157.87V1368.25M527.605 1157.87H655.539M527.605 1157.87V1368.25M655.539 1157.87H783.474M655.539 1157.87V1368.25M783.474 1157.87H911.408M783.474 1157.87V1368.25M911.408 1157.87H1039.34M911.408 1157.87V1368.25M1039.34 1157.87H1167.28M1039.34 1157.87V1368.25M1167.28 1157.87H1295.21M1167.28 1157.87V1368.25M1295.21 1157.87H1423.14M1295.21 1157.87V1368.25M1423.14 1157.87H1551.08M1423.14 1157.87V1368.25M1551.08 1157.87H1679.01M1551.08 1157.87V1368.25M1679.01 1157.87V1368.25M-112.066 1368.25H-240M-112.066 1368.25H15.8684M-112.066 1368.25V1578.62M-240 1368.25V1578.62M15.8684 1368.25H143.803M15.8684 1368.25V1578.62M143.803 1368.25H271.737M143.803 1368.25V1578.62M271.737 1368.25H399.671M271.737 1368.25V1578.62M399.671 1368.25H527.605M399.671 1368.25V1578.62M527.605 1368.25H655.539M527.605 1368.25V1578.62M655.539 1368.25H783.474M655.539 1368.25V1578.62M783.474 1368.25H911.408M783.474 1368.25V1578.62M911.408 1368.25H1039.34M911.408 1368.25V1578.62M1039.34 1368.25H1167.28M1039.34 1368.25V1578.62M1167.28 1368.25H1295.21M1167.28 1368.25V1578.62M1295.21 1368.25H1423.14M1295.21 1368.25V1578.62M1423.14 1368.25H1551.08M1423.14 1368.25V1578.62M1551.08 1368.25H1679.01M1551.08 1368.25V1578.62M1679.01 1368.25V1578.62M-112.066 1578.62H-240M-112.066 1578.62H15.8684M-112.066 1578.62V1789M-240 1578.62V1789M15.8684 1578.62H143.803M15.8684 1578.62V1789M143.803 1578.62H271.737M143.803 1578.62V1789M271.737 1578.62H399.671M271.737 1578.62V1789M399.671 1578.62H527.605M399.671 1578.62V1789M527.605 1578.62H655.539M527.605 1578.62V1789M655.539 1578.62H783.474M655.539 1578.62V1789M783.474 1578.62H911.408M783.474 1578.62V1789M911.408 1578.62H1039.34M911.408 1578.62V1789M1039.34 1578.62H1167.28M1039.34 1578.62V1789M1167.28 1578.62H1295.21M1167.28 1578.62V1789M1295.21 1578.62H1423.14M1295.21 1578.62V1789M1423.14 1578.62H1551.08M1423.14 1578.62V1789M1551.08 1578.62H1679.01M1551.08 1578.62V1789M1679.01 1578.62V1789M-112.066 1789H-240M-112.066 1789H15.8684M-112.066 1789V1999.37M-240 1789V1999.37M15.8684 1789H143.803M15.8684 1789V1999.37M143.803 1789H271.737M143.803 1789V1999.37M271.737 1789H399.671M271.737 1789V1999.37M399.671 1789H527.605M399.671 1789V1999.37M527.605 1789H655.539M527.605 1789V1999.37M655.539 1789H783.474M655.539 1789V1999.37M783.474 1789H911.408M783.474 1789V1999.37M911.408 1789H1039.34M911.408 1789V1999.37M1039.34 1789H1167.28M1039.34 1789V1999.37M1167.28 1789H1295.21M1167.28 1789V1999.37M1295.21 1789H1423.14M1295.21 1789V1999.37M1423.14 1789H1551.08M1423.14 1789V1999.37M1551.08 1789H1679.01M1551.08 1789V1999.37M1679.01 1789V1999.37M-112.066 1999.37H-240M-112.066 1999.37H15.8684M-112.066 1999.37V2209.75M-240 1999.37V2209.75M15.8684 1999.37H143.803M15.8684 1999.37V2209.75M143.803 1999.37H271.737M143.803 1999.37V2209.75M271.737 1999.37H399.671M271.737 1999.37V2209.75M399.671 1999.37H527.605M399.671 1999.37V2209.75M527.605 1999.37H655.539M527.605 1999.37V2209.75M655.539 1999.37H783.474M655.539 1999.37V2209.75M783.474 1999.37H911.408M783.474 1999.37V2209.75M911.408 1999.37H1039.34M911.408 1999.37V2209.75M1039.34 1999.37H1167.28M1039.34 1999.37V2209.75M1167.28 1999.37H1295.21M1167.28 1999.37V2209.75M1295.21 1999.37H1423.14M1295.21 1999.37V2209.75M1423.14 1999.37H1551.08M1423.14 1999.37V2209.75M1551.08 1999.37H1679.01M1551.08 1999.37V2209.75M1679.01 1999.37V2209.75M-112.066 2209.75H-240M-112.066 2209.75H15.8684M-112.066 2209.75V2420.12M-240 2209.75V2420.12M15.8684 2209.75H143.803M15.8684 2209.75V2420.12M143.803 2209.75H271.737M143.803 2209.75V2420.12M271.737 2209.75H399.671M271.737 2209.75V2420.12M399.671 2209.75H527.605M399.671 2209.75V2420.12M527.605 2209.75H655.539M527.605 2209.75V2420.12M655.539 2209.75H783.474M655.539 2209.75V2420.12M783.474 2209.75H911.408M783.474 2209.75V2420.12M911.408 2209.75H1039.34M911.408 2209.75V2420.12M1039.34 2209.75H1167.28M1039.34 2209.75V2420.12M1167.28 2209.75H1295.21M1167.28 2209.75V2420.12M1295.21 2209.75H1423.14M1295.21 2209.75V2420.12M1423.14 2209.75H1551.08M1423.14 2209.75V2420.12M1551.08 2209.75H1679.01M1551.08 2209.75V2420.12M1679.01 2209.75V2420.12M-112.066 2420.12H-240M-112.066 2420.12H15.8684M-112.066 2420.12V2630.5M-240 2420.12V2630.5M15.8684 2420.12H143.803M15.8684 2420.12V2630.5M143.803 2420.12H271.737M143.803 2420.12V2630.5M271.737 2420.12H399.671M271.737 2420.12V2630.5M399.671 2420.12H527.605M399.671 2420.12V2630.5M527.605 2420.12H655.539M527.605 2420.12V2630.5M655.539 2420.12H783.474M655.539 2420.12V2630.5M783.474 2420.12H911.408M783.474 2420.12V2630.5M911.408 2420.12H1039.34M911.408 2420.12V2630.5M1039.34 2420.12H1167.28M1039.34 2420.12V2630.5M1167.28 2420.12H1295.21M1167.28 2420.12V2630.5M1295.21 2420.12H1423.14M1295.21 2420.12V2630.5M1423.14 2420.12H1551.08M1423.14 2420.12V2630.5M1551.08 2420.12H1679.01M1551.08 2420.12V2630.5M1679.01 2420.12V2630.5M-112.066 2630.5H-240M-112.066 2630.5H15.8684M-112.066 2630.5V2840.87M-240 2630.5V2840.87M15.8684 2630.5H143.803M15.8684 2630.5V2840.87M143.803 2630.5H271.737M143.803 2630.5V2840.87M271.737 2630.5H399.671M271.737 2630.5V2840.87M399.671 2630.5H527.605M399.671 2630.5V2840.87M527.605 2630.5H655.539M527.605 2630.5V2840.87M655.539 2630.5H783.474M655.539 2630.5V2840.87M783.474 2630.5H911.408M783.474 2630.5V2840.87M911.408 2630.5H1039.34M911.408 2630.5V2840.87M1039.34 2630.5H1167.28M1039.34 2630.5V2840.87M1167.28 2630.5H1295.21M1167.28 2630.5V2840.87M1295.21 2630.5H1423.14M1295.21 2630.5V2840.87M1423.14 2630.5H1551.08M1423.14 2630.5V2840.87M1551.08 2630.5H1679.01M1551.08 2630.5V2840.87M1679.01 2630.5V2840.87M-112.066 2840.87H-240M-112.066 2840.87H15.8684M-112.066 2840.87V3051.25M-240 2840.87V3051.25M15.8684 2840.87H143.803M15.8684 2840.87V3051.25M143.803 2840.87H271.737M143.803 2840.87V3051.25M271.737 2840.87H399.671M271.737 2840.87V3051.25M399.671 2840.87H527.605M399.671 2840.87V3051.25M527.605 2840.87H655.539M527.605 2840.87V3051.25M655.539 2840.87H783.474M655.539 2840.87V3051.25M783.474 2840.87H911.408M783.474 2840.87V3051.25M911.408 2840.87H1039.34M911.408 2840.87V3051.25M1039.34 2840.87H1167.28M1039.34 2840.87V3051.25M1167.28 2840.87H1295.21M1167.28 2840.87V3051.25M1295.21 2840.87H1423.14M1295.21 2840.87V3051.25M1423.14 2840.87H1551.08M1423.14 2840.87V3051.25M1551.08 2840.87H1679.01M1551.08 2840.87V3051.25M1679.01 2840.87V3051.25M-112.066 3051.25H-240M-112.066 3051.25H15.8684M-112.066 3051.25V3261.62M-240 3051.25V3261.62H-112.066M15.8684 3051.25H143.803M15.8684 3051.25V3261.62M143.803 3051.25H271.737M143.803 3051.25V3261.62M271.737 3051.25H399.671M271.737 3051.25V3261.62M399.671 3051.25H527.605M399.671 3051.25V3261.62M527.605 3051.25H655.539M527.605 3051.25V3261.62M655.539 3051.25H783.474M655.539 3051.25V3261.62M783.474 3051.25H911.408M783.474 3051.25V3261.62M911.408 3051.25H1039.34M911.408 3051.25V3261.62M1039.34 3051.25H1167.28M1039.34 3051.25V3261.62M1167.28 3051.25H1295.21M1167.28 3051.25V3261.62M1295.21 3051.25H1423.14M1295.21 3051.25V3261.62M1423.14 3051.25H1551.08M1423.14 3051.25V3261.62M1551.08 3051.25H1679.01M1551.08 3051.25V3261.62M1679.01 3051.25V3261.62H1551.08M-112.066 3261.62H15.8684M15.8684 3261.62H143.803M143.803 3261.62H271.737M271.737 3261.62H399.671M399.671 3261.62H527.605M527.605 3261.62H655.539M655.539 3261.62H783.474M783.474 3261.62H911.408M911.408 3261.62H1039.34M1039.34 3261.62H1167.28M1167.28 3261.62H1295.21M1295.21 3261.62H1423.14M1423.14 3261.62H1551.08" stroke="url(#paint1_radial_296_3)" stroke-opacity="0.2"/>
</g>
<defs>
<radialGradient id="paint0_radial_296_3" cx="0" cy="0" r="1" gradientUnits="userSpaceOnUse" gradientTransform="translate(720.577 3579.13) rotate(90) scale(1117.35 679.491)">
<stop stop-color="white"/>
<stop offset="1" stop-color="white" stop-opacity="0.02"/>
</radialGradient>
<radialGradient id="paint1_radial_296_3" cx="0" cy="0" r="1" gradientUnits="userSpaceOnUse" gradientTransform="translate(720.577 1685.13) rotate(90) scale(1117.35 679.491)">
<stop stop-color="white"/>
<stop offset="1" stop-color="white" stop-opacity="0.02"/>
</radialGradient>
</defs>
</svg>
