<svg width="75" height="71" viewBox="0 0 75 71" fill="none" xmlns="http://www.w3.org/2000/svg">
<path d="M43.4244 28.0352C43.4244 25.0137 41.3932 23.3457 37.8254 23.3457H31.2629V33.0801H36.7968C41.0676 33.0664 43.4244 31.2617 43.4244 28.0352ZM67.3176 26.2852C66.0807 22.0605 65.8984 16.8789 66.0416 12.873C66.1848 8.70312 63.0859 4.875 58.9192 4.875H16.1067C11.927 4.875 8.84106 8.7168 8.98429 12.873C9.1145 16.8789 8.94523 22.0605 7.70825 26.2852C6.45825 30.5234 4.3619 33.2031 0.911377 33.5449V37.4414C4.34888 37.7832 6.45825 40.4629 7.70825 44.7012C8.94523 48.9258 9.12752 54.1074 8.98429 58.1133C8.84106 62.2832 11.94 66.1113 16.1067 66.1113H58.9062C63.0859 66.1113 66.1718 62.2695 66.0286 58.1133C65.8984 54.1074 66.0676 48.9258 67.3046 44.7012C68.5546 40.4629 70.651 37.7832 74.0885 37.4414V33.5449C70.664 33.2031 68.5546 30.5234 67.3176 26.2852ZM39.0885 51.7832H26.3411V19.2031H39.0234C44.6614 19.2031 48.3593 22.4023 48.3593 27.3242C48.3593 30.7832 45.8723 33.873 42.6952 34.4062V34.584C47.0182 35.0762 49.9218 38.2207 49.9218 42.5547C49.9218 48.3105 45.8463 51.7832 39.0885 51.7832ZM37.7864 36.9219H31.2629V47.6406H38.0728C42.526 47.6406 44.8827 45.7676 44.8827 42.2402C44.8827 38.7266 42.4609 36.9219 37.7864 36.9219Z" fill="white" fill-opacity="0.8"/>
</svg>
