<svg width="71" height="71" viewBox="0 0 71 71" fill="none" xmlns="http://www.w3.org/2000/svg">
<path d="M69.7727 54.3339C67.2789 54.9683 65.7367 54.3612 64.3531 52.2831C61.2469 47.6292 57.818 43.1886 54.5094 38.6659C54.0828 38.0808 53.6398 37.5065 53.0875 36.7792C49.1719 42.062 45.2617 47.0932 41.5922 52.3268C40.2797 54.1972 38.9016 55.012 36.4516 54.3503L51.1734 34.5917L37.4687 16.7472C39.8258 16.2878 41.4555 16.5229 42.8992 18.6339C46.0875 23.2932 49.6039 27.7284 53.1094 32.4206C56.6367 27.7448 60.1094 23.3042 63.3906 18.6886C64.7086 16.8182 66.125 16.1073 68.493 16.7964C66.6992 19.1753 64.9437 21.5159 63.1773 23.8401C60.793 26.9737 58.4523 30.1456 55.9805 33.2136C55.1 34.3073 55.2422 35.0183 56.0297 36.0518C60.6016 42.062 65.1187 48.1323 69.7727 54.3339ZM1.22734 34.2636C1.62109 32.2893 1.88359 30.2768 2.43047 28.3409C5.71172 16.6214 19.1648 11.7487 28.407 19.0112C33.8211 23.2714 35.1664 29.2761 34.8984 36.0464H4.38281C3.92344 48.1925 12.668 55.5261 23.8133 51.7854C27.7234 50.4729 30.0258 47.4104 31.1797 43.5823C31.7648 41.6628 32.7328 41.362 34.5375 41.9089C33.6133 46.6995 31.5188 50.7026 27.1438 53.2073C20.5813 56.9589 11.2133 55.7448 6.28594 50.5331C3.37656 47.4706 2.14062 43.6589 1.59375 39.5409C1.51172 38.8847 1.34219 38.2393 1.21094 37.5886C1.22187 36.4802 1.22734 35.3719 1.22734 34.2636ZM4.4375 33.4487H32.0164C31.8359 24.6659 26.3672 18.4261 18.8914 18.3714C10.6883 18.3057 4.79297 24.3979 4.4375 33.4487Z" fill="white" fill-opacity="0.8"/>
</svg>
