<svg width="66" height="71" viewBox="0 0 66 71" fill="none" xmlns="http://www.w3.org/2000/svg">
<g clip-path="url(#clip0_296_171)">
<path d="M2.86987 13.5977C2.86987 6.36523 10.1316 0.5 19.086 0.5H46.9142C55.8686 0.5 63.1303 6.36523 63.1303 13.5977C63.1303 18.1777 60.2188 22.2109 55.8009 24.5488C60.2188 26.8867 63.1303 30.9199 63.1303 35.5C63.1303 42.7324 55.8686 48.5977 46.9142 48.5977H46.5587C42.3608 48.5977 38.5352 47.3125 35.6576 45.1934V57.2656C35.6576 64.5938 28.2097 70.5 19.1707 70.5C10.2332 70.5 2.86987 64.6484 2.86987 57.4023C2.86987 52.8223 5.78133 48.7891 10.1824 46.4512C5.78133 44.1133 2.86987 40.0801 2.86987 35.5C2.86987 30.9199 5.78133 26.8867 10.1824 24.5488C5.78133 22.2109 2.86987 18.1777 2.86987 13.5977ZM30.3425 26.6953H19.086C13.06 26.6953 8.18498 30.6328 8.18498 35.5C8.18498 40.3398 13.0261 44.2773 19.0183 44.3047C19.0352 44.3047 19.0691 44.3047 19.086 44.3047H30.3425V26.6953ZM35.6576 35.5C35.6576 40.3672 40.5326 44.3047 46.5587 44.3047H46.9142C52.9233 44.3047 57.8152 40.3672 57.8152 35.5C57.8152 30.6328 52.9233 26.6953 46.9142 26.6953H46.5587C40.5326 26.6953 35.6576 30.6328 35.6576 35.5ZM19.086 48.5977C19.0691 48.5977 19.0352 48.5977 19.0183 48.5977C13.0261 48.625 8.18498 52.5625 8.18498 57.4023C8.18498 62.2559 13.1277 66.207 19.1707 66.207C25.3152 66.207 30.3425 62.1875 30.3425 57.2656V48.5977H19.086ZM19.086 4.79297C13.06 4.79297 8.18498 8.73047 8.18498 13.5977C8.18498 18.4648 13.06 22.4023 19.086 22.4023H30.3425V4.79297H19.086ZM35.6576 22.4023H46.9142C52.9233 22.4023 57.8152 18.4648 57.8152 13.5977C57.8152 8.73047 52.9233 4.79297 46.9142 4.79297H35.6576V22.4023Z" fill="white"/>
</g>
<defs>
<clipPath id="clip0_296_171">
<rect width="65" height="70" fill="white" transform="translate(0.5 0.5)"/>
</clipPath>
</defs>
</svg>
