<svg width="75" height="71" viewBox="0 0 75 71" fill="none" xmlns="http://www.w3.org/2000/svg">
<g clip-path="url(#clip0_296_238)">
<path d="M25.1812 59.6432C25.1812 57.0396 22.8791 55.7378 18.2749 55.7378C13.8666 55.7378 11.6624 57.0921 11.6624 59.8007C11.6624 62.4316 14.0614 63.747 18.8593 63.747C23.0718 63.7411 25.178 62.3742 25.178 59.6461L25.1812 59.6432ZM22.7124 30.1499C22.7155 30.077 22.7187 29.9924 22.7187 29.9078C22.7187 28.5078 22.2499 27.2099 21.4499 26.1453L21.4655 26.1657C20.6687 25.1857 19.4187 24.5557 18.0124 24.5557C17.9155 24.5557 17.8218 24.5586 17.728 24.5645H17.7405C14.2801 24.5645 12.5499 26.4525 12.5499 30.2286C12.5499 33.7442 14.2801 35.502 17.7405 35.502C21.0572 35.5039 22.7155 33.7209 22.7155 30.1528L22.7124 30.1499ZM33.9624 17.4945V25.387C32.9624 25.6981 31.8603 25.9839 30.6562 26.2445C31.0687 27.2157 31.3155 28.3416 31.3249 29.5199V29.5257C31.328 29.6278 31.3312 29.7474 31.3312 29.8699C31.3312 32.9528 30.178 35.782 28.2499 38.0074L28.2718 37.9841C26.2312 40.2795 23.3624 41.8749 20.0999 42.3678L20.0218 42.3766C19.0562 42.5049 18.203 42.8841 17.5155 43.4353L17.5218 43.4295C17.0093 43.9632 16.6968 44.672 16.6968 45.4507C16.6968 45.5382 16.6999 45.6228 16.7093 45.7074V45.6957V45.7541C16.7093 46.5299 17.0718 47.227 17.6499 47.7053L17.653 47.7082C18.3312 48.2624 19.1405 48.6911 20.0343 48.9478L20.0812 48.9595C21.0707 49.2589 22.1655 49.5448 23.3655 49.817C24.5655 50.0892 25.7655 50.4217 26.9655 50.8145C28.2218 51.2228 29.3062 51.7186 30.3155 52.3166L30.2499 52.2816C31.2749 52.9086 32.0968 53.7516 32.6593 54.7432L32.678 54.7782C33.2749 55.837 33.6249 57.0911 33.6249 58.4211C33.6249 58.4941 33.6249 58.5641 33.6218 58.637V58.6253C33.628 66.545 28.5707 70.5049 18.4499 70.5049C18.4062 70.5049 18.3562 70.5049 18.3062 70.5049C16.4312 70.5049 14.603 70.327 12.8374 69.9886L13.0124 70.0178C11.1812 69.6649 9.55928 69.1107 8.05615 68.3728L8.15928 68.4195C6.62803 67.6757 5.38428 66.582 4.51865 65.2549L4.49678 65.217C3.64053 63.8636 3.13428 62.2332 3.13428 60.492C3.13428 60.4045 3.13428 60.317 3.1374 60.2295V60.2411C3.1374 55.9439 5.67699 53.0136 10.7562 51.4503V51.2928C9.05928 50.3391 7.94053 48.6299 7.94053 46.6786C7.94053 46.5707 7.94365 46.4628 7.9499 46.3578V46.3724C7.9499 43.5335 8.82907 41.7495 10.5874 41.0203V40.8628C8.38428 40.0724 6.63115 38.5761 5.6124 36.6745L5.5874 36.6249C4.38115 34.7786 3.64678 32.5532 3.5874 30.1732V30.1586C3.58428 30.0624 3.58428 29.9516 3.58428 29.8378C3.58428 26.4136 5.10928 23.3191 7.55928 21.117L7.5624 21.1141C10.003 18.877 13.353 17.4945 17.0499 17.4945C17.1718 17.4945 17.2937 17.4974 17.4155 17.5003H17.3968H17.4937C20.1999 17.5003 22.7374 18.1828 24.9187 19.3728L24.8499 19.3378C28.1687 19.2532 31.2937 18.5824 34.1499 17.4391L33.9843 17.4974L33.9624 17.4945ZM47.2718 51.9082H37.9874C38.0999 50.7377 38.1562 48.9935 38.1562 46.6757V22.8874C38.1562 20.4393 38.0999 18.773 37.9874 17.8882H47.2812C47.1687 18.7477 47.1124 20.3625 47.1124 22.7328V46.6786C47.1124 48.9964 47.1687 50.7406 47.2812 51.9111L47.2718 51.9082ZM72.4249 43.2341V50.902C70.4468 51.8674 68.103 52.4332 65.6186 52.4332C65.453 52.4332 65.2843 52.4303 65.1186 52.4245H65.1437C65.0655 52.4274 64.9718 52.4274 64.878 52.4274C63.3593 52.4274 61.9124 52.1386 60.5968 51.6166L60.6687 51.6428C59.5093 51.1907 58.528 50.5257 57.7468 49.6974L57.7405 49.6886C57.0061 48.8282 56.4374 47.8103 56.103 46.702L56.0874 46.6407C55.728 45.5995 55.4562 44.3803 55.3186 43.1232L55.3124 43.0474C55.1999 41.9002 55.1437 40.5595 55.1437 39.0253V25.3053H55.2249V25.1478C55.0291 25.1478 54.7645 25.1342 54.4311 25.107C54.0978 25.0798 53.8478 25.0661 53.6811 25.0661C52.7905 25.0895 51.9374 25.1741 51.1093 25.3141L51.2124 25.2995V17.8795H55.2312V14.9103C55.2343 14.8141 55.2343 14.7003 55.2343 14.5866C55.2343 13.4753 55.1437 12.3816 54.9655 11.3141L54.9812 11.4336H64.4812C64.3124 12.9999 64.2155 14.817 64.2155 16.6574C64.2155 17.0861 64.2218 17.5149 64.2312 17.9407V17.8766H71.3811V25.2995C70.9624 25.2995 70.3562 25.2742 69.5624 25.2236C68.7687 25.1731 68.1759 25.1478 67.7843 25.1478H64.2374V39.4045C64.2374 42.815 65.4509 44.5203 67.878 44.5203H67.9905C69.653 44.5203 71.1968 44.0391 72.4655 43.2166L72.4405 43.2311L72.4249 43.2341ZM48.3249 6.2449V6.31198C48.3249 7.8199 47.703 9.19073 46.6874 10.2174L46.6905 10.2145C45.7343 11.2557 44.3218 11.9149 42.7437 11.9149C42.7187 11.9149 42.6937 11.9149 42.6687 11.9149C42.6468 11.9149 42.6249 11.9149 42.5968 11.9149C40.9936 11.9149 39.5562 11.2586 38.5749 10.2203L38.5687 10.2145C37.5312 9.19948 36.8937 7.8199 36.8937 6.30323C36.8937 6.28281 36.8937 6.26531 36.8937 6.2449V6.24781C36.8937 6.2274 36.8937 6.20406 36.8937 6.18073C36.8937 4.65531 37.5218 3.26406 38.5499 2.22573L38.5468 2.22865C39.528 1.17281 40.9655 0.507812 42.5718 0.507812H42.6749H42.6687H42.7593C44.3468 0.507812 45.7655 1.18156 46.703 2.24031L46.7093 2.24906C47.7093 3.29323 48.3186 4.67865 48.3186 6.19823V6.25656V6.25365L48.3249 6.2449Z" fill="white" fill-opacity="0.8"/>
</g>
<defs>
<clipPath id="clip0_296_238">
<rect width="75" height="70" fill="white" transform="translate(0 0.5)"/>
</clipPath>
</defs>
</svg>
