<svg width="71" height="68" viewBox="0 0 71 68" fill="none" xmlns="http://www.w3.org/2000/svg">
<path d="M32.8246 0.5C14.976 0.5 0.5 15.2422 0.5 33.4251C0.5 47.9725 9.76099 60.314 22.6073 64.6683C24.2208 64.9729 24.7434 63.9522 24.7434 63.0852V56.9556C15.7518 58.9476 13.8797 53.0705 13.8797 53.0705C12.4089 49.2649 10.289 48.2524 10.289 48.2524C7.3555 46.2083 10.5125 46.2522 10.5125 46.2522C13.7585 46.4827 15.4663 49.6462 15.4663 49.6462C18.3485 54.6783 23.0275 53.2241 24.8727 52.3818C25.1609 50.2554 25.9987 48.8012 26.9253 47.9808C19.7466 47.1439 12.1988 44.3206 12.1988 31.7075C12.1988 28.1105 13.4621 25.1746 15.5282 22.8699C15.1942 22.0385 14.0871 18.6884 15.8434 14.1557C15.8434 14.1557 18.5587 13.2722 24.7353 17.5305C27.3132 16.8007 30.077 16.4358 32.8246 16.422C35.5721 16.4358 38.3386 16.8007 40.9219 17.5305C47.0932 13.2722 49.803 14.1557 49.803 14.1557C51.562 18.6911 50.4549 22.0413 50.1209 22.8699C52.1951 25.1746 53.4476 28.1132 53.4476 31.7075C53.4476 44.3535 45.8864 47.1384 38.6888 47.9533C39.8471 48.974 40.9057 50.977 40.9057 54.05V63.0852C40.9057 63.9604 41.4229 64.9893 43.0634 64.6656C55.8989 60.3057 65.1491 47.9671 65.1491 33.4251C65.1491 15.2422 50.6758 0.5 32.8246 0.5Z" fill="white" fill-opacity="0.8"/>
</svg>
