<svg width="65" height="71" viewBox="0 0 65 71" fill="none" xmlns="http://www.w3.org/2000/svg">
<path d="M0 4.875V66.125H65V4.875H0ZM35.3728 52.6445C35.3728 58.6055 31.6585 61.3262 26.2467 61.3262C21.3571 61.3262 18.5279 58.9473 17.077 56.0625L22.0536 53.2324C23.0112 54.832 23.8817 56.1855 25.9855 56.1855C27.9877 56.1855 29.2645 55.4473 29.2645 52.5625V32.998H35.3728V52.6445ZM49.8237 61.3262C44.1507 61.3262 40.4799 58.7832 38.6953 55.4473L43.6719 52.7402C44.9777 54.75 46.6897 56.2402 49.6931 56.2402C52.2176 56.2402 53.8426 55.0508 53.8426 53.3965C53.8426 51.4277 52.1886 50.7305 49.3884 49.5684L47.865 48.9531C43.4542 47.1895 40.5379 44.9609 40.5379 40.2715C40.5379 35.9512 44.0346 32.6699 49.4754 32.6699C53.3638 32.6699 56.1496 33.9414 58.1518 37.2773L53.3929 40.1484C52.3482 38.3848 51.2165 37.6875 49.4609 37.6875C47.6763 37.6875 46.5446 38.7539 46.5446 40.1484C46.5446 41.8711 47.6763 42.5684 50.3025 43.6484L51.8259 44.2637C57.0201 46.3555 59.9364 48.502 59.9364 53.3145C59.9364 58.4824 55.6127 61.3262 49.8237 61.3262Z" fill="white" fill-opacity="0.8"/>
</svg>
