<svg width="71" height="71" viewBox="0 0 71 71" fill="none" xmlns="http://www.w3.org/2000/svg">
<path d="M54.4582 28.2407C52.2709 27.4873 50.3402 26.1328 48.8874 24.3323C47.2863 22.3263 45.2476 20.7131 42.9272 19.6162C40.6068 18.5192 38.0663 17.9674 35.4999 18.0032C32.0477 17.7587 28.63 18.8235 25.9274 20.9855C23.2249 23.1475 21.4359 26.2481 20.9166 29.6698C21.9394 27.9585 23.4787 26.6157 25.3132 25.8348C27.1476 25.0538 29.1824 24.875 31.1249 25.324C33.3086 26.0993 35.2362 27.4617 36.6957 29.2615C38.3056 31.2515 40.3482 32.848 42.6681 33.9296C44.988 35.0112 47.524 35.5494 50.0832 35.5032C53.5355 35.7477 56.9532 34.6829 59.6557 32.5209C62.3582 30.3588 64.1473 27.2582 64.6666 23.8365C63.6624 25.5683 62.1279 26.9314 60.2897 27.7244C58.4516 28.5175 56.4071 28.6984 54.4582 28.2407ZM16.5416 42.7657C18.7289 43.519 20.6597 44.8736 22.1124 46.674C23.7135 48.68 25.7522 50.2932 28.0726 51.3902C30.393 52.4872 32.9335 53.0389 35.4999 53.0032C38.9522 53.2477 42.3699 52.1829 45.0724 50.0209C47.7749 47.8588 49.564 44.7582 50.0832 41.3365C49.0605 43.0479 47.5211 44.3906 45.6867 45.1716C43.8523 45.9525 41.8174 46.1313 39.8749 45.6823C37.6912 44.9071 35.7636 43.5446 34.3041 41.7448C32.6899 39.7598 30.6464 38.1668 28.3276 37.0856C26.0087 36.0045 23.4748 35.4634 20.9166 35.5032C17.4643 35.2587 14.0466 36.3235 11.3441 38.4855C8.64158 40.6475 6.85254 43.7481 6.33325 47.1698C7.33748 45.438 8.87194 44.0749 10.7101 43.2819C12.5483 42.4889 14.5927 42.3079 16.5416 42.7657Z" fill="white" fill-opacity="0.8"/>
</svg>
