<svg width="40" height="40" viewBox="0 0 40 40" fill="none" xmlns="http://www.w3.org/2000/svg">
<path d="M37.645 0L34.4318 35.9958L19.9884 40L5.58478 36.0015L2.375 0H37.645Z" fill="#264DE4"/>
<path d="M20.0098 36.941L31.6807 33.7054L34.4266 2.94531H20.0098V36.941Z" fill="#2965F1"/>
<path d="M20.01 16.2969H9.7334L10.1291 20.7123H20.01V16.2969Z" fill="#EBEBEB"/>
<path d="M20.0098 7.35938H19.9945H8.93799L9.33937 11.7749H20.0098V7.35938Z" fill="#EBEBEB"/>
<path d="M10.3262 22.9219L10.9448 29.8547L19.9895 32.3656L20.0098 32.36V27.7661L19.9904 27.7712L15.0729 26.4434L14.7586 22.9219H12.3691H10.3262Z" fill="#EBEBEB"/>
<path d="M25.4317 20.7117L24.9192 26.4382L19.9946 27.7674V32.3611L29.0465 29.8524L29.1129 29.1064L30.1505 17.482L30.2582 16.2963L31.0554 7.35938H19.9946V11.7749H26.2164L25.8147 16.2963H19.9946V20.7117H25.4317Z" fill="white"/>
</svg>
