<svg width="40" height="42" viewBox="0 0 40 42" fill="none" xmlns="http://www.w3.org/2000/svg">
<path d="M13.5 42C17.088 42 20 39.088 20 35.5V29H13.5C9.912 29 7 31.912 7 35.5C7 39.088 9.912 42 13.5 42Z" fill="#0ACF83"/>
<path d="M6.6665 21.7031C6.6665 17.8391 9.65317 14.7031 13.3332 14.7031H19.9998V28.7031H13.3332C9.65317 28.7031 6.6665 25.5671 6.6665 21.7031Z" fill="#A259FF"/>
<path d="M6.6665 7C6.6665 3.136 9.65317 0 13.3332 0H19.9998V14H13.3332C9.65317 14 6.6665 10.864 6.6665 7Z" fill="#F24E1E"/>
<path d="M20 7.35156H26.6667C30.3467 7.35156 33.3333 10.4876 33.3333 14.3516C33.3333 18.2156 30.3467 21.3516 26.6667 21.3516H20V7.35156Z" fill="#FF7262"/>
<path d="M33.3333 29.0469C33.3333 32.9109 30.3467 36.0469 26.6667 36.0469C22.9867 36.0469 20 32.9109 20 29.0469C20 25.1829 22.9867 22.0469 26.6667 22.0469C30.3467 22.0469 33.3333 25.1829 33.3333 29.0469Z" fill="#1ABCFE"/>
</svg>
