<svg width="40" height="40" viewBox="0 0 40 40" fill="none" xmlns="http://www.w3.org/2000/svg">
<g clip-path="url(#clip0_207_915)">
<mask id="mask0_207_915" style="mask-type:luminance" maskUnits="userSpaceOnUse" x="0" y="0" width="40" height="40">
<path d="M0 0.046875H39.9509V39.9977H0V0.046875Z" fill="white"/>
</mask>
<g mask="url(#mask0_207_915)">
<path d="M39.1983 18.2433L21.7549 0.801086C21.5159 0.561982 21.2322 0.372305 20.9199 0.242894C20.6076 0.113483 20.2729 0.046875 19.9349 0.046875C19.5968 0.046875 19.2621 0.113483 18.9498 0.242894C18.6375 0.372305 18.3538 0.561982 18.1149 0.801086L14.494 4.42369L19.0879 9.01761C19.628 8.83418 20.2086 8.80555 20.7642 8.93494C21.3197 9.06433 21.8279 9.34659 22.2314 9.74978C22.6371 10.1559 22.9203 10.668 23.0486 11.2275C23.1769 11.787 23.1452 12.3714 22.957 12.9137L27.3862 17.3415C27.9286 17.1531 28.5132 17.1214 29.0729 17.25C29.6325 17.3785 30.1447 17.6622 30.5505 18.0685C30.8348 18.3527 31.0603 18.6902 31.2142 19.0616C31.368 19.433 31.4472 19.831 31.4472 20.233C31.4472 20.635 31.368 21.0331 31.2142 21.4045C31.0603 21.7759 30.8348 22.1134 30.5505 22.3976C29.9758 22.9718 29.1966 23.2943 28.3842 23.2943C27.5718 23.2943 26.7926 22.9718 26.2179 22.3976C25.7909 21.9699 25.5 21.4255 25.3818 20.8329C25.2636 20.2403 25.3234 19.6259 25.5536 19.0672L21.4231 14.938V25.8063C21.8591 26.0217 22.2375 26.3378 22.5269 26.7285C22.8164 27.1192 23.0086 27.5733 23.0876 28.053C23.1667 28.5328 23.1303 29.0245 22.9815 29.4875C22.8326 29.9504 22.5757 30.3712 22.2318 30.715C21.9476 30.9993 21.6101 31.2248 21.2387 31.3787C20.8673 31.5325 20.4693 31.6117 20.0672 31.6117C19.6652 31.6117 19.2672 31.5325 18.8958 31.3787C18.5244 31.2248 18.1869 30.9993 17.9027 30.715C17.6183 30.4308 17.3928 30.0933 17.2389 29.7218C17.085 29.3504 17.0058 28.9523 17.0058 28.5502C17.0058 28.1482 17.085 27.75 17.2389 27.3786C17.3928 27.0072 17.6183 26.6697 17.9027 26.3854C18.1891 26.0984 18.5296 25.871 18.9044 25.7163V14.748C18.5311 14.5943 18.1919 14.3683 17.9062 14.083C17.6205 13.7978 17.394 13.4589 17.2396 13.0858C17.0853 12.7127 17.0062 12.3129 17.0069 11.9091C17.0076 11.5054 17.088 11.1058 17.2436 10.7333L12.714 6.20283L0.752246 18.1615C0.270228 18.6445 -0.000488281 19.299 -0.000488281 19.9813C-0.000488281 20.6637 0.270228 21.3181 0.752246 21.8011L18.1966 39.2454C18.6795 39.7273 19.3339 39.998 20.0162 39.998C20.6984 39.998 21.3528 39.7273 21.8357 39.2454L39.1983 21.8828C39.6804 21.3999 39.9511 20.7454 39.9511 20.063C39.9511 19.3807 39.6804 18.7262 39.1983 18.2433Z" fill="#F03C2E"/>
</g>
</g>
<defs>
<clipPath id="clip0_207_915">
<rect width="40" height="40" fill="white"/>
</clipPath>
</defs>
</svg>
