<svg width="40" height="40" viewBox="0 0 40 40" fill="none" xmlns="http://www.w3.org/2000/svg">
<path d="M5.57523 36.0017L2.36523 0H37.6352L34.4219 35.995L19.9786 40L5.57523 36.0017Z" fill="#E44D26"/>
<path d="M20 36.942L31.6717 33.707L34.4167 2.94531H20V36.942Z" fill="#F16529"/>
<path d="M19.9999 16.296H14.1566L13.7532 11.7744H19.9999V7.35938H8.92822L9.03322 8.54271L10.1182 20.711H19.9999V16.296ZM19.9999 27.7627L19.9799 27.7677L15.0632 26.4394L14.7482 22.9177H10.3166L10.9349 29.851L19.9799 32.361L19.9999 32.356V27.7627Z" fill="#EBEBEB"/>
<path d="M19.9851 16.2977V20.7127H25.4217L24.9084 26.4394L19.9834 27.7677V32.361L29.0351 29.8527L29.1017 29.106L30.1401 17.481L30.2484 16.296H29.0584L19.9851 16.2977ZM19.9851 7.36104V11.776H30.6501L30.7384 10.7827L30.9401 8.54437L31.0451 7.35938L19.9851 7.36104Z" fill="white"/>
</svg>
