<svg width="40" height="40" viewBox="0 0 40 40" fill="none" xmlns="http://www.w3.org/2000/svg">
<path d="M35.2119 9.48219L21.4172 1.48062C20.5481 0.985625 19.4097 0.985625 18.5337 1.48062L4.63125 9.48219C3.73469 9.99813 3.125 10.9678 3.125 12.005V27.9869C3.125 29.0241 3.7475 29.9941 4.64438 30.5128L8.30969 32.6028C10.0681 33.4691 10.5553 33.4691 11.3553 33.4691C13.9597 33.4691 15.3122 31.8944 15.3122 29.1478V13.3697C15.3125 13.1469 15.4516 12.8153 15.2325 12.8153H13.4756C13.2531 12.8153 12.8125 13.1469 12.8125 13.3694V29.1475C12.8125 30.365 11.6825 31.5766 9.62438 30.5475L5.83625 28.3559C5.70438 28.2841 5.625 28.1394 5.625 27.9869V12.005C5.625 11.8544 5.76969 11.7031 5.90344 11.6259L19.7716 3.63812C19.9013 3.56469 20.0847 3.56469 20.2137 3.63812L33.9522 11.6241C34.0838 11.7031 34.0628 11.8497 34.0628 12.005V27.9869C34.0628 28.1394 34.0916 28.2878 33.9619 28.3612L20.1703 36.3537C20.0522 36.4247 19.8984 36.4247 19.7687 36.3537L16.2322 34.2447C16.1256 34.1828 15.9972 34.1606 15.8947 34.2178C14.9119 34.775 14.7294 34.8491 13.8075 35.1688C13.5803 35.2478 13.2453 35.385 13.935 35.7716L18.5594 38.5072C19.0019 38.7634 19.5053 38.8966 20.0116 38.8966C20.5247 38.8966 21.0269 38.7634 21.4697 38.5072L35.2122 30.5128C36.1094 29.9903 36.5628 29.0241 36.5628 27.9869V12.005C36.5625 10.9678 36.1091 10.0006 35.2119 9.48219ZM24.2897 25.4544C20.625 25.4544 19.8181 24.4434 19.5491 22.6213C19.5172 22.425 19.3509 22.1903 19.1509 22.1903H17.3603C17.1388 22.1903 16.9603 22.4591 16.9603 22.6797C16.9603 25.0128 18.2291 27.8397 24.2897 27.8397C28.6766 27.8397 31.1922 26.135 31.1922 23.1181C31.1922 20.1269 29.1713 19.3419 24.9166 18.7787C20.6159 18.2103 20.1791 17.9231 20.1791 16.9156C20.1791 16.085 20.5491 14.9772 23.7334 14.9772C26.5784 14.9772 27.6272 15.5878 28.0588 17.5056C28.0959 17.6859 28.2606 17.8153 28.4466 17.8153H30.2447C30.3553 17.8153 30.4606 17.7706 30.5381 17.6916C30.6134 17.6066 30.6528 17.5 30.6431 17.3856C30.3641 14.0828 28.1703 12.5437 23.7331 12.5437C19.7856 12.5437 17.4312 14.2106 17.4312 17.0047C17.4312 20.0353 19.7741 20.8728 23.5631 21.2475C28.0959 21.6919 28.4484 22.3544 28.4484 23.2459C28.4484 24.7947 27.2053 25.4544 24.2897 25.4544Z" fill="#83CD29"/>
</svg>
