<svg width="40" height="45" viewBox="0 0 40 45" fill="none" xmlns="http://www.w3.org/2000/svg">
<path d="M40 22.5027C40 19.8866 36.6816 17.4073 31.594 15.8698C32.768 10.7501 32.2462 6.67695 29.947 5.3729C29.417 5.06701 28.7974 4.92211 28.1207 4.92211V6.7172C28.4957 6.7172 28.7974 6.78965 29.0501 6.9265C30.159 7.55438 30.64 9.94515 30.265 13.0201C30.1753 13.7768 30.0285 14.5737 29.8492 15.3868C28.2511 15.0004 26.5063 14.7025 24.6718 14.5093C23.5711 13.0201 22.4297 11.6678 21.2801 10.4845C23.938 8.04541 26.4329 6.70915 28.1288 6.70915V4.91406C25.8867 4.91406 22.9515 6.49181 19.9837 9.22872C17.0159 6.50791 14.0807 4.94626 11.8386 4.94626V6.74135C13.5263 6.74135 16.0294 8.06956 18.6873 10.4925C17.5459 11.6758 16.4044 13.0201 15.32 14.5093C13.4774 14.7025 11.7326 15.0004 10.1345 15.3948C9.947 14.5898 9.8084 13.809 9.71056 13.0604C9.32735 9.98539 9.80025 7.59462 10.9009 6.9587C11.1455 6.8138 11.4635 6.7494 11.8386 6.7494V4.95431C11.1537 4.95431 10.534 5.09921 9.99592 5.4051C7.70485 6.70915 7.19119 10.7743 8.37342 15.8778C3.30208 17.4234 0 19.8946 0 22.5027C0 25.1189 3.31838 27.5982 8.40603 29.1357C7.23196 34.2553 7.75377 38.3285 10.053 39.6326C10.583 39.9385 11.2026 40.0834 11.8875 40.0834C14.1296 40.0834 17.0648 38.5056 20.0326 35.7687C23.0004 38.4895 25.9356 40.0512 28.1777 40.0512C28.8626 40.0512 29.4823 39.9063 30.0204 39.6004C32.3115 38.2963 32.8251 34.2312 31.6429 29.1277C36.6979 27.5902 40 25.1108 40 22.5027ZM29.3844 17.1336C29.0828 18.172 28.7077 19.2426 28.2837 20.3132C27.9494 19.6692 27.5989 19.0252 27.2157 18.3813C26.8406 17.7373 26.4411 17.1094 26.0416 16.4976C27.1994 16.6667 28.3163 16.876 29.3844 17.1336ZM25.6502 25.7065C25.0143 26.7932 24.362 27.8236 23.6853 28.7815C22.4704 28.8862 21.2393 28.9425 20 28.9425C18.7689 28.9425 17.5377 28.8862 16.331 28.7896C15.6543 27.8317 14.9939 26.8093 14.3579 25.7307C13.7383 24.6762 13.1757 23.6055 12.662 22.5269C13.1676 21.4482 13.7383 20.3696 14.3498 19.315C14.9857 18.2283 15.638 17.198 16.3147 16.24C17.5296 16.1354 18.7607 16.079 20 16.079C21.2311 16.079 22.4623 16.1354 23.669 16.232C24.3457 17.1899 25.0061 18.2122 25.6421 19.2909C26.2617 20.3454 26.8243 21.416 27.338 22.4947C26.8243 23.5733 26.2617 24.652 25.6502 25.7065ZM28.2837 24.6601C28.724 25.7387 29.0991 26.8174 29.4089 27.8639C28.3408 28.1214 27.2157 28.3388 26.0497 28.5078C26.4492 27.888 26.8488 27.2521 27.2238 26.6C27.5989 25.9561 27.9494 25.304 28.2837 24.6601ZM20.0163 33.2491C19.2581 32.4764 18.4998 31.615 17.7497 30.6732C18.4835 30.7054 19.2336 30.7296 19.9918 30.7296C20.7583 30.7296 21.5165 30.7135 22.2585 30.6732C21.5247 31.615 20.7664 32.4764 20.0163 33.2491ZM13.9503 28.5078C12.7925 28.3388 11.6755 28.1295 10.6074 27.8719C10.9091 26.8335 11.2841 25.7629 11.7081 24.6923C12.0424 25.3362 12.393 25.9802 12.7762 26.6242C13.1594 27.2682 13.5508 27.8961 13.9503 28.5078ZM19.9755 11.7563C20.7338 12.5291 21.4921 13.3904 22.2422 14.3323C21.5084 14.3001 20.7583 14.2759 20 14.2759C19.2336 14.2759 18.4753 14.292 17.7334 14.3323C18.4672 13.3904 19.2254 12.5291 19.9755 11.7563ZM13.9421 16.4976C13.5426 17.1175 13.1431 17.7534 12.768 18.4054C12.393 19.0494 12.0424 19.6934 11.7081 20.3374C11.2678 19.2587 10.8928 18.18 10.583 17.1336C11.651 16.884 12.7762 16.6667 13.9421 16.4976ZM6.56339 26.5759C3.67713 25.3604 1.81003 23.7665 1.81003 22.5027C1.81003 21.2389 3.67713 19.637 6.56339 18.4296C7.26458 18.1317 8.03098 17.8661 8.82185 17.6165C9.28659 19.1943 9.89808 20.8364 10.6563 22.5188C9.90624 24.1932 9.3029 25.8273 8.84631 27.397C8.03914 27.1474 7.27273 26.8737 6.56339 26.5759ZM10.9499 38.079C9.84101 37.4511 9.35997 35.0603 9.73502 31.9853C9.82471 31.2286 9.97147 30.4317 10.1508 29.6187C11.7489 30.0051 13.4937 30.3029 15.3282 30.4961C16.4289 31.9853 17.5703 33.3377 18.7199 34.521C16.062 36.9601 13.5671 38.2963 11.8712 38.2963C11.5043 38.2883 11.1945 38.2158 10.9499 38.079ZM30.2894 31.9451C30.6726 35.0201 30.1998 37.4108 29.0991 38.0468C28.8545 38.1917 28.5365 38.2561 28.1614 38.2561C26.4737 38.2561 23.9707 36.9279 21.3127 34.5049C22.4541 33.3216 23.5956 31.9773 24.68 30.4881C26.5226 30.2949 28.2674 29.997 29.8655 29.6026C30.053 30.4156 30.1998 31.1964 30.2894 31.9451ZM33.4285 26.5759C32.7273 26.8737 31.9609 27.1394 31.17 27.3889C30.7053 25.8112 30.0938 24.169 29.3355 22.4866C30.0856 20.8123 30.689 19.1782 31.1455 17.6085C31.9527 17.858 32.7191 18.1317 33.4366 18.4296C36.3229 19.6451 38.19 21.2389 38.19 22.5027C38.1818 23.7665 36.3147 25.3684 33.4285 26.5759Z" fill="#61DAFB"/>
<path d="M19.9917 26.1778C22.0495 26.1778 23.7177 24.5307 23.7177 22.499C23.7177 20.4673 22.0495 18.8203 19.9917 18.8203C17.9338 18.8203 16.2656 20.4673 16.2656 22.499C16.2656 24.5307 17.9338 26.1778 19.9917 26.1778Z" fill="#61DAFB"/>
</svg>
