<svg width="39" height="26" viewBox="0 0 39 26" fill="none" xmlns="http://www.w3.org/2000/svg">
<g clip-path="url(#clip0_207_933)">
<mask id="mask0_207_933" style="mask-type:luminance" maskUnits="userSpaceOnUse" x="0" y="0" width="39" height="26">
<path d="M0 0H39V25.5273H0V0Z" fill="white"/>
</mask>
<g mask="url(#mask0_207_933)">
<path fill-rule="evenodd" clip-rule="evenodd" d="M19.5 0C14.3 0 11.05 2.83636 9.75 8.50909C11.7 5.67273 13.975 4.60909 16.575 5.31818C18.0584 5.72236 19.1187 6.89709 20.2923 8.1963C22.204 10.3133 24.4169 12.7636 29.25 12.7636C34.45 12.7636 37.7 9.92727 39 4.25455C37.05 7.09091 34.775 8.15454 32.175 7.44545C30.6916 7.04127 29.6313 5.86655 28.4577 4.56733C26.546 2.4503 24.3331 0 19.5 0ZM9.75 12.7636C4.55 12.7636 1.3 15.6 0 21.2727C1.95 18.4364 4.225 17.3727 6.825 18.0818C8.30844 18.4868 9.36867 19.6607 10.5423 20.9599C12.454 23.077 14.6669 25.5273 19.5 25.5273C24.7 25.5273 27.95 22.6909 29.25 17.0182C27.3 19.8545 25.025 20.9182 22.425 20.2091C20.9416 19.8049 19.8813 18.6302 18.7077 17.331C16.796 15.2139 14.5831 12.7636 9.75 12.7636Z" fill="#38BDF8"/>
</g>
</g>
<defs>
<clipPath id="clip0_207_933">
<rect width="39" height="26" fill="white"/>
</clipPath>
</defs>
</svg>
