<svg width="55" height="55" viewBox="0 0 55 55" fill="none" xmlns="http://www.w3.org/2000/svg">
<path d="M28.497 32.8415L6.68605 18.9614C5.55846 18.2157 4.76882 17.057 4.48718 15.7348C4.20554 14.4126 4.45443 13.0327 5.18024 11.8922C5.90605 10.7517 7.05074 9.94185 8.36779 9.63706C9.68485 9.33228 11.0689 9.55693 12.222 10.2626L28.2235 20.445L42.5907 10.3878C43.7117 9.62817 45.0864 9.33999 46.418 9.58546C47.7496 9.83093 48.9312 10.5903 49.7077 11.6997C50.4841 12.809 50.793 14.1793 50.5676 15.5144C50.3422 16.8496 49.6007 18.0425 48.5032 18.8356L28.497 32.8415Z" fill="#EA4435"/>
<path d="M47.2656 45.5469H40.3906V14.6094C40.3906 13.2419 40.9339 11.9303 41.9009 10.9634C42.8678 9.99637 44.1794 9.45312 45.5469 9.45312C46.9144 9.45312 48.2259 9.99637 49.1929 10.9634C50.1599 11.9303 50.7031 13.2419 50.7031 14.6094L50.7031 42.1094C50.7031 43.0211 50.341 43.8954 49.6963 44.5401C49.0516 45.1847 48.1773 45.5469 47.2656 45.5469Z" fill="#00AC47"/>
<path d="M50.6278 13.8653C50.6127 13.7621 50.6139 13.6568 50.5924 13.5538C50.5594 13.396 50.498 13.2503 50.451 13.098C50.4053 12.9237 50.3503 12.752 50.2863 12.5836C50.2519 12.502 50.199 12.4303 50.16 12.3509C50.053 12.1218 49.9293 11.9009 49.7898 11.69C49.721 11.5902 49.6351 11.5051 49.5591 11.4105C49.4287 11.2387 49.2878 11.0752 49.1371 10.9209C49.0228 10.8097 48.8926 10.7167 48.7683 10.6165C48.6362 10.5033 48.4986 10.3967 48.3558 10.2973C48.2195 10.2083 48.0703 10.1397 47.9261 10.0637C47.7742 9.9845 47.6253 9.89822 47.4672 9.83497C47.3144 9.77344 47.1515 9.73425 46.9918 9.68733C46.8321 9.64041 46.6733 9.58421 46.5093 9.55378C46.3062 9.52115 46.1013 9.50049 45.8958 9.49191C45.7653 9.4828 45.636 9.45994 45.5051 9.46097C45.2619 9.46806 45.0196 9.49247 44.7799 9.53402C44.6832 9.54846 44.5857 9.54725 44.4896 9.56719C44.1653 9.66629 43.8419 9.76827 43.5194 9.87313C43.4309 9.91094 43.3534 9.96714 43.2676 10.0098C42.3948 10.417 41.6586 11.0684 41.1481 11.8851C40.6375 12.7018 40.3744 13.6489 40.3906 14.6119V24.5153L48.5031 18.8361C49.2997 18.3014 49.9244 17.5473 50.3014 16.6651C50.6784 15.7828 50.7921 14.8105 50.6278 13.8653Z" fill="#FFBA00"/>
<path d="M9.45312 9.45312C10.8206 9.45312 12.1322 9.99637 13.0991 10.9634C14.0661 11.9303 14.6094 13.2419 14.6094 14.6094V45.5469H7.73438C6.82269 45.5469 5.94835 45.1847 5.3037 44.5401C4.65904 43.8954 4.29688 43.0211 4.29688 42.1094V14.6094C4.29688 13.2419 4.84012 11.9303 5.80711 10.9634C6.77409 9.99637 8.0856 9.45313 9.45312 9.45312Z" fill="#4285F4"/>
<path d="M4.37236 13.8665C4.38749 13.7633 4.38629 13.658 4.40777 13.555C4.44077 13.3973 4.50213 13.2515 4.54922 13.0992C4.59488 12.925 4.64984 12.7533 4.71388 12.585C4.74825 12.5033 4.80119 12.4317 4.84038 12.3523C4.94725 12.123 5.071 11.9021 5.2106 11.6912C5.27935 11.5914 5.36529 11.5063 5.44125 11.4118C5.57157 11.2399 5.71243 11.0764 5.86304 10.9221C5.97733 10.8109 6.10761 10.7179 6.23205 10.6177C6.36408 10.5044 6.50176 10.3979 6.64455 10.2985C6.78085 10.2095 6.93004 10.1409 7.07424 10.0649C7.22326 9.98065 7.37642 9.9039 7.53315 9.83497C7.68611 9.77344 7.84905 9.73425 8.00855 9.68733C8.16805 9.64041 8.32704 9.58421 8.491 9.55378C8.69415 9.52116 8.89903 9.5005 9.1046 9.49191C9.23522 9.4828 9.3643 9.45994 9.49527 9.46097C9.73841 9.46805 9.98074 9.49246 10.2204 9.53402C10.3172 9.54846 10.4146 9.54725 10.5109 9.56719C10.6772 9.60958 10.8413 9.66052 11.0024 9.71981C11.1645 9.76288 11.3242 9.81405 11.4811 9.87313C11.5695 9.91094 11.647 9.96714 11.7329 10.0098C11.9557 10.1144 12.1707 10.2351 12.3761 10.3707C13.0647 10.8435 13.6278 11.4768 14.0169 12.216C14.406 12.9551 14.6094 13.7778 14.6094 14.6131V24.5165L6.49691 18.8376C5.7004 18.3028 5.07588 17.5487 4.69884 16.6665C4.32181 15.7843 4.20841 14.8118 4.37236 13.8665Z" fill="#C52528"/>
</svg>
