<svg width="94" height="60" viewBox="0 0 94 60" fill="none" xmlns="http://www.w3.org/2000/svg">
<path d="M7.65978 40.476C6.61445 40.476 5.60645 40.336 4.63578 40.056C3.66511 39.7947 2.87178 39.412 2.25578 38.908C1.63978 38.3853 1.33178 37.788 1.33178 37.116V33.84H2.11578C2.39578 35.744 2.98378 37.116 3.87978 37.956C4.77578 38.796 6.02645 39.216 7.63178 39.216C8.71445 39.216 9.57312 38.9827 10.2078 38.516C10.8424 38.0493 11.1598 37.3773 11.1598 36.5C11.1598 35.7533 10.9264 35.1187 10.4598 34.596C9.99312 34.0733 9.26512 33.504 8.27578 32.888L4.83178 30.816C3.58111 30.088 2.68511 29.332 2.14378 28.548C1.62111 27.764 1.35978 26.8493 1.35978 25.804C1.35978 24.3293 1.91978 23.1627 3.03978 22.304C4.17845 21.4453 5.70912 21.016 7.63178 21.016C8.67712 21.016 9.68512 21.156 10.6558 21.436C11.6264 21.6973 12.4198 22.0893 13.0358 22.612C13.6518 23.116 13.9598 23.704 13.9598 24.376V27.652H13.1758C12.8584 25.748 12.2704 24.376 11.4118 23.536C10.5531 22.696 9.39578 22.276 7.93978 22.276C6.93178 22.276 6.12912 22.5187 5.53178 23.004C4.95312 23.4893 4.66378 24.152 4.66378 24.992C4.66378 25.72 4.88778 26.3267 5.33578 26.812C5.80245 27.2787 6.54911 27.8107 7.57578 28.408L11.0198 30.452C12.3264 31.2173 13.2598 31.964 13.8198 32.692C14.3984 33.4013 14.6878 34.26 14.6878 35.268C14.6878 36.892 14.0718 38.1707 12.8398 39.104C11.6264 40.0187 9.89978 40.476 7.65978 40.476ZM23.5231 40C22.8511 40 22.3378 39.8973 21.9831 39.692C21.6284 39.468 21.3764 39.104 21.2271 38.6C21.0778 38.0773 21.0031 37.3307 21.0031 36.36V21.52H24.6431V36.36C24.6431 37.312 24.7738 38.0213 25.0351 38.488C25.2964 38.936 25.8191 39.16 26.6031 39.16H26.8831V40H23.5231ZM33.035 25.16C33.035 24.208 32.9043 23.508 32.643 23.06C32.3817 22.5933 31.859 22.36 31.075 22.36H30.795V21.52H38.411C42.1817 21.52 45.047 22.3227 47.007 23.928C48.9857 25.5147 49.975 27.7547 49.975 30.648C49.975 32.496 49.555 34.1293 48.715 35.548C47.8937 36.948 46.6617 38.04 45.019 38.824C43.395 39.608 41.435 40 39.139 40H33.035V25.16ZM39.055 38.88C40.3617 38.88 41.519 38.5533 42.527 37.9C43.5537 37.2467 44.347 36.304 44.907 35.072C45.4857 33.84 45.775 32.4027 45.775 30.76C45.775 29.136 45.4857 27.7173 44.907 26.504C44.347 25.272 43.5537 24.32 42.527 23.648C41.5003 22.976 40.3243 22.64 38.999 22.64H38.775C38.159 22.64 37.6643 22.6773 37.291 22.752L36.675 22.836V38.684L37.291 38.796C37.683 38.852 38.1777 38.88 38.775 38.88H39.055ZM70.9726 40.112C69.7966 40.112 68.7326 39.8693 67.7806 39.384C66.8286 38.88 66.0539 37.9093 65.4566 36.472L64.8126 34.904H57.3646L55.0686 40H53.6126L61.8726 21.52H63.1326L69.4046 36.472C70.1139 38.208 71.0846 39.1413 72.3166 39.272V39.972C71.9806 40.0653 71.5326 40.112 70.9726 40.112ZM57.9526 33.644H64.2806L61.2006 26.336L57.9526 33.644ZM78.7415 26.14V40H77.3415V24.88C77.3415 24.096 77.1455 23.48 76.7535 23.032C76.3802 22.584 75.7362 22.36 74.8215 22.36H74.6815V21.52H76.6415C77.6868 21.52 78.5362 21.66 79.1895 21.94C79.8615 22.2013 80.4215 22.6213 80.8695 23.2L90.5015 34.4V21.52H91.9015V40.084H90.6135L78.7415 26.14Z" fill="black"/>
<circle cx="52" cy="30" r="30" fill="#DCD7D7" fill-opacity="0.35"/>
</svg>
