<svg width="75" height="71" viewBox="0 0 75 71" fill="none" xmlns="http://www.w3.org/2000/svg">
<path d="M67.6597 15.7027H54.0207V14.9844C54.0207 13.7849 52.9759 12.8092 51.6907 12.8092H51.2341C51.0202 12.2008 50.757 11.6097 50.4468 11.0409L50.7707 10.7386C51.2125 10.3263 51.455 9.77731 51.4539 9.19358C51.4527 8.61148 51.2089 8.06559 50.7707 7.6608L48.0355 5.10798C47.5984 4.69564 47.0135 4.46814 46.3898 4.46661C46.3875 4.46661 46.3864 4.46661 46.3841 4.46661C45.7604 4.46661 45.1745 4.69302 44.7339 5.10427L44.41 5.40658C43.8012 5.11761 43.1682 4.8725 42.516 4.67223V4.24556C42.516 3.04605 41.47 2.07031 40.1848 2.07031H36.3063C35.0211 2.07031 33.9763 3.04605 33.9763 4.24556V4.67223C33.3251 4.87195 32.6911 5.11761 32.0811 5.40658L31.7572 5.10427C31.3166 4.69302 30.7307 4.46661 30.107 4.46661C30.1046 4.46661 30.1036 4.46661 30.1012 4.46661C29.4776 4.46825 28.8927 4.69575 28.4602 5.10427L25.725 7.65708C25.2832 8.06559 25.0395 8.61148 25.0384 9.19358C25.0372 9.77731 25.2799 10.3263 25.7216 10.7386L26.0455 11.0409C25.7354 11.6097 25.4721 12.2008 25.2581 12.8092H24.8016C23.5164 12.8092 22.4704 13.7849 22.4704 14.9844V15.7027H7.33676C3.93797 15.7027 1.17188 18.2838 1.17188 21.4562V55.0014C1.17188 58.1763 3.93797 60.7591 7.33676 60.7591H29.0107V66.7427H20.8992C20.2515 66.7427 19.7273 67.2324 19.7273 67.8364C19.7273 68.4404 20.2515 68.9302 20.8992 68.9302H54.1202C54.7679 68.9302 55.2921 68.4404 55.2921 67.8364C55.2921 67.2324 54.7679 66.7427 54.1202 66.7427H46.0041V60.7591H67.6597C71.0609 60.7591 73.8281 58.1764 73.8281 55.0014V21.4562C73.8281 18.2838 71.061 15.7027 67.6597 15.7027ZM26.1371 14.9967C26.6727 14.9967 27.1407 14.6575 27.2725 14.1732C27.5391 13.1975 27.9534 12.2677 28.5027 11.41C28.7786 10.98 28.7053 10.43 28.3253 10.0754L27.3789 9.20747L30.1003 6.65094L31.0467 7.53425C31.4266 7.88939 32.0171 7.95666 32.4761 7.69984C33.3962 7.18709 34.3929 6.80045 35.4377 6.55162C35.9573 6.42825 36.32 5.99195 36.32 5.492L36.3063 4.25781L40.1721 4.24556V5.49211C40.1721 5.99195 40.5349 6.42836 41.0544 6.55173C42.1004 6.80111 43.0961 7.18775 44.015 7.69995C44.4728 7.95633 45.0633 7.8895 45.4444 7.53436L46.3737 6.65105L49.1134 9.19205L48.167 10.0754C47.7871 10.43 47.7138 10.98 47.9896 11.41C48.5389 12.2677 48.9532 13.1975 49.2198 14.1732C49.3514 14.6576 49.8195 14.9967 50.3551 14.9967L51.6769 14.9844L51.6906 18.592H50.3551C49.8196 18.592 49.3515 18.9311 49.2198 19.4154C48.9532 20.3912 48.5388 21.321 47.9896 22.1787C47.7137 22.6086 47.787 23.1587 48.167 23.5133L49.1134 24.3812L46.3909 26.9377L45.4445 26.0544C45.0646 25.6987 44.4752 25.633 44.0152 25.8888C43.0962 26.401 42.1005 26.7876 41.0545 27.037C40.5349 27.1604 40.1722 27.5967 40.1722 28.0966L40.1848 29.3308L36.32 29.3431V28.0966C36.32 27.5968 35.9572 27.1604 35.4377 27.037C34.3929 26.7882 33.3961 26.4014 32.4761 25.8888C32.2895 25.7847 32.0824 25.7339 31.8752 25.7339C31.5731 25.7339 31.2722 25.8434 31.0467 26.0544L30.1174 26.9377L27.3789 24.3967L28.3253 23.5134C28.7052 23.1588 28.7784 22.6088 28.5027 22.1788C27.9533 21.3211 27.5391 20.3913 27.2725 19.4155C27.1409 18.9311 26.6728 18.5921 26.1371 18.5921L24.8142 18.6043L24.8017 14.9968L26.1371 14.9967ZM7.33676 17.8902H22.4705V18.6042C22.4705 19.8037 23.5165 20.7795 24.8017 20.7795H25.2582C25.4722 21.3878 25.7354 21.979 26.0456 22.5477L25.7217 22.85C25.2799 23.2624 25.0373 23.8113 25.0385 24.3951C25.0397 24.9772 25.2834 25.523 25.7217 25.9278L28.4557 28.4807C28.8928 28.893 29.4777 29.1205 30.1014 29.122C30.1037 29.122 30.1048 29.122 30.1071 29.122C30.7308 29.122 31.3167 28.8956 31.7573 28.4844L32.0812 28.1821C32.6912 28.471 33.3252 28.7167 33.9764 28.9164V29.3431C33.9764 30.5426 35.0213 31.5183 36.3064 31.5183H40.1849C41.4701 31.5183 42.5161 30.5426 42.5161 29.3431V28.9164C43.1684 28.7161 43.8013 28.471 44.4101 28.1821L44.734 28.4844C45.1746 28.8956 45.7605 29.122 46.3842 29.122C46.3866 29.122 46.3876 29.122 46.39 29.122C47.0136 29.1204 47.5985 28.8929 48.0311 28.4844L50.7674 25.9316C51.2092 25.523 51.4529 24.9772 51.454 24.3951C51.4552 23.8113 51.2125 23.2624 50.7708 22.85L50.4469 22.5477C50.757 21.979 51.0203 21.3878 51.2343 20.7795H51.6908C52.976 20.7795 54.0209 19.8037 54.0209 18.6042V17.8902H67.66C69.7691 17.8902 71.4846 19.4897 71.4846 21.4562V50.3668H3.51562V21.4562C3.51562 19.4897 5.22996 17.8902 7.33676 17.8902ZM43.6603 66.7427H31.3545V60.7591H43.6603V66.7427ZM67.6597 58.5716H7.33676C5.22996 58.5716 3.51562 56.9699 3.51562 55.0014V52.5543H71.4844V55.0014C71.4844 56.9699 69.7689 58.5716 67.6597 58.5716Z" fill="black" fill-opacity="0.8"/>
<path d="M36.9771 54.6134C36.4152 54.913 36.2195 55.5812 36.541 56.1056L36.5525 56.1243C36.7677 56.4752 37.1556 56.6686 37.5585 56.6686C37.7576 56.6686 37.959 56.621 38.1456 56.5222C38.7075 56.2221 38.8974 55.5449 38.5759 55.0205C38.2543 54.4962 37.5378 54.3128 36.9771 54.6134Z" fill="black" fill-opacity="0.8"/>
<path d="M24.2651 46.1359C24.8785 46.3206 25.5412 46.0013 25.7379 45.4261L26.5872 42.939H29.2558L30.105 45.4261C30.2641 45.8913 30.7253 46.1883 31.222 46.1883C31.3398 46.1883 31.46 46.1712 31.5779 46.1359C32.1947 45.9527 32.5346 45.3374 32.3389 44.7618L29.0384 35.0975C28.8828 34.644 28.4318 34.3359 27.9215 34.3359C27.4111 34.3359 26.9602 34.644 26.8046 35.0975L23.5041 44.7618C23.3083 45.3374 23.6482 45.9527 24.2651 46.1359ZM28.5088 40.7514H27.3341L27.9215 39.0312L28.5088 40.7514Z" fill="black" fill-opacity="0.8"/>
<path d="M37.8066 46.1878C38.4543 46.1878 38.9785 45.698 38.9785 45.0941V41.7113H41.2673C43.4439 41.7113 45.2144 40.0568 45.2144 38.0236C45.2144 35.9905 43.4441 34.3359 41.2673 34.3359H37.8066C37.1589 34.3359 36.6348 34.8257 36.6348 35.4297V45.094C36.6348 45.6981 37.1589 46.1878 37.8066 46.1878ZM42.8707 38.0237C42.8707 38.8509 42.152 39.5239 41.2673 39.5239H38.9785V36.5235H41.2673C42.152 36.5235 42.8707 37.1964 42.8707 38.0237Z" fill="black" fill-opacity="0.8"/>
<path d="M50.4468 46.1877C51.0945 46.1877 51.6187 45.6979 51.6187 45.094V35.4297C51.6187 34.8257 51.0945 34.3359 50.4468 34.3359C49.7991 34.3359 49.2749 34.8257 49.2749 35.4297V45.094C49.2749 45.698 49.799 46.1877 50.4468 46.1877Z" fill="black" fill-opacity="0.8"/>
<path d="M38.244 23.9809C42.4897 23.9809 45.9448 20.7584 45.9448 16.7973C45.9448 12.8341 42.4898 9.60938 38.244 9.60938C34.0005 9.60938 30.5479 12.834 30.5479 16.7973C30.5479 20.7584 34.0005 23.9809 38.244 23.9809ZM38.244 11.7969C41.1977 11.7969 43.601 14.0399 43.601 16.7973C43.601 19.552 41.1977 21.7934 38.244 21.7934C35.2925 21.7934 32.8916 19.552 32.8916 16.7973C32.8916 14.0399 35.2925 11.7969 38.244 11.7969Z" fill="black" fill-opacity="0.8"/>
</svg>
