<svg width="75" height="71" viewBox="0 0 75 71" fill="none" xmlns="http://www.w3.org/2000/svg">
<path d="M43.4246 28.0352C43.4246 25.0137 41.3934 23.3457 37.8257 23.3457H31.2632V33.0801H36.797C41.0679 33.0664 43.4246 31.2617 43.4246 28.0352ZM67.3179 26.2852C66.0809 22.0605 65.8986 16.8789 66.0418 12.873C66.1851 8.70312 63.0861 4.875 58.9194 4.875H16.1069C11.9272 4.875 8.84131 8.7168 8.98454 12.873C9.11475 16.8789 8.94548 22.0605 7.7085 26.2852C6.4585 30.5234 4.36214 33.2031 0.911621 33.5449V37.4414C4.34912 37.7832 6.4585 40.4629 7.7085 44.7012C8.94548 48.9258 9.12777 54.1074 8.98454 58.1133C8.84131 62.2832 11.9403 66.1113 16.1069 66.1113H58.9064C63.0861 66.1113 66.172 62.2695 66.0288 58.1133C65.8986 54.1074 66.0679 48.9258 67.3049 44.7012C68.5549 40.4629 70.6512 37.7832 74.0887 37.4414V33.5449C70.6642 33.2031 68.5549 30.5234 67.3179 26.2852ZM39.0887 51.7832H26.3413V19.2031H39.0236C44.6616 19.2031 48.3595 22.4023 48.3595 27.3242C48.3595 30.7832 45.8726 33.873 42.6955 34.4062V34.584C47.0184 35.0762 49.922 38.2207 49.922 42.5547C49.922 48.3105 45.8465 51.7832 39.0887 51.7832ZM37.7866 36.9219H31.2632V47.6406H38.0731C42.5262 47.6406 44.883 45.7676 44.883 42.2402C44.883 38.7266 42.4611 36.9219 37.7866 36.9219Z" fill="black" fill-opacity="0.8"/>
</svg>
