<svg width="66" height="71" viewBox="0 0 66 71" fill="none" xmlns="http://www.w3.org/2000/svg">
<g clip-path="url(#clip0_207_1031)">
<path d="M2.86963 13.5977C2.86963 6.36523 10.1313 0.5 19.0858 0.5H46.9139C55.8683 0.5 63.1301 6.36523 63.1301 13.5977C63.1301 18.1777 60.2186 22.2109 55.8006 24.5488C60.2186 26.8867 63.1301 30.9199 63.1301 35.5C63.1301 42.7324 55.8683 48.5977 46.9139 48.5977H46.5584C42.3605 48.5977 38.535 47.3125 35.6574 45.1934V57.2656C35.6574 64.5938 28.2095 70.5 19.1704 70.5C10.2329 70.5 2.86963 64.6484 2.86963 57.4023C2.86963 52.8223 5.78109 48.7891 10.1821 46.4512C5.78109 44.1133 2.86963 40.0801 2.86963 35.5C2.86963 30.9199 5.78109 26.8867 10.1821 24.5488C5.78109 22.2109 2.86963 18.1777 2.86963 13.5977ZM30.3423 26.6953H19.0858C13.0597 26.6953 8.18473 30.6328 8.18473 35.5C8.18473 40.3398 13.0259 44.2773 19.0181 44.3047C19.035 44.3047 19.0689 44.3047 19.0858 44.3047H30.3423V26.6953ZM35.6574 35.5C35.6574 40.3672 40.5324 44.3047 46.5584 44.3047H46.9139C52.923 44.3047 57.8149 40.3672 57.8149 35.5C57.8149 30.6328 52.923 26.6953 46.9139 26.6953H46.5584C40.5324 26.6953 35.6574 30.6328 35.6574 35.5ZM19.0858 48.5977C19.0689 48.5977 19.035 48.5977 19.0181 48.5977C13.0259 48.625 8.18473 52.5625 8.18473 57.4023C8.18473 62.2559 13.1274 66.207 19.1704 66.207C25.3149 66.207 30.3423 62.1875 30.3423 57.2656V48.5977H19.0858ZM19.0858 4.79297C13.0597 4.79297 8.18473 8.73047 8.18473 13.5977C8.18473 18.4648 13.0597 22.4023 19.0858 22.4023H30.3423V4.79297H19.0858ZM35.6574 22.4023H46.9139C52.923 22.4023 57.8149 18.4648 57.8149 13.5977C57.8149 8.73047 52.923 4.79297 46.9139 4.79297H35.6574V22.4023Z" fill="black" fill-opacity="0.8"/>
</g>
<defs>
<clipPath id="clip0_207_1031">
<rect width="65" height="70" fill="white" transform="translate(0.5 0.5)"/>
</clipPath>
</defs>
</svg>
