<svg width="71" height="71" viewBox="0 0 71 71" fill="none" xmlns="http://www.w3.org/2000/svg">
<g clip-path="url(#clip0_207_1068)">
<path d="M35.1618 0.5C35.1559 0.555417 35.1501 0.590417 35.1472 0.642917V0.680833C35.1414 0.724583 35.1355 0.75375 35.1326 0.794583V0.838333H35.1268C35.1268 0.8675 35.1209 0.890833 35.1209 0.914167V0.99H35.1122C35.1093 1.01333 35.1093 1.0425 35.1034 1.06292V1.12417H35.0976C35.0976 1.14458 35.0976 1.16792 35.0918 1.18542V1.24375H35.0859C35.0859 1.27292 35.083 1.30792 35.0801 1.33708V1.34292C35.0714 1.3925 35.0626 1.44208 35.0539 1.48875V1.51208H35.048C35.0451 1.52375 35.0393 1.53542 35.0393 1.54708V1.59667H35.0305V1.66083H35.0159V1.71333H35.0014V1.77458H34.9897V1.83H34.9751V1.87958H34.9576V1.92042H34.9459V1.97292H34.9343V2.01375H34.9168V2.05167H34.908V2.09542H34.8964C34.8934 2.09833 34.8934 2.10417 34.8934 2.10708V2.13625H34.8847C34.8818 2.14208 34.8818 2.14792 34.8818 2.15375V2.17125H34.8759C34.873 2.18 34.8701 2.19458 34.8701 2.20042C34.8614 2.22083 34.8497 2.24125 34.8409 2.26167V2.2675C34.8351 2.27333 34.8293 2.28208 34.8264 2.28792V2.31125H34.8147V2.33458H34.8001V2.35792H34.7914V2.38708H34.7709V2.42792H34.7593V2.43958H34.7476V2.46292H34.7359V2.495H34.7243V2.51833H34.7068V2.55042H34.6951V2.57375H34.6805V2.59708H34.6718V2.62625H34.6543V2.64958H34.6426V2.66708H34.6309V2.69042H34.6134V2.71667H34.6018V2.73417H34.5872V2.7575H34.5755V2.78958H34.5609V2.80125H34.5522V2.82458H34.5347V2.83625H34.523V2.86542H34.5084V2.87708H34.4968V2.90042H34.4822V2.91792H34.4734L34.4676 2.92958V2.94125H34.4618C34.4589 2.94708 34.4559 2.94708 34.4559 2.95292L34.453 2.95583C34.4501 2.96458 34.4472 2.97042 34.4414 2.97625V2.985H34.4384C34.4239 3.0025 34.4151 3.02 34.4034 3.0375C34.3976 3.04333 34.383 3.05792 34.3772 3.06958V3.07542C34.3743 3.07833 34.3655 3.08125 34.3655 3.08417V3.09292H34.3597L34.3509 3.10167L34.348 3.10458C34.348 3.1075 34.3422 3.11042 34.3393 3.11625V3.12792H34.3305L34.3247 3.13375V3.13958H34.3189C34.3189 3.14542 34.313 3.14542 34.313 3.14833V3.15708H34.3014C34.3014 3.16 34.2984 3.16292 34.2955 3.16583V3.18333H34.2868V3.195H34.2751V3.2125H34.2634V3.23583H34.2489V3.2125H34.2343V3.22417H34.2168V3.24167H34.2022V3.265H34.1876V3.27667H34.1759V3.29417H34.1643V3.30583H34.1526V3.32917H34.1351V3.34083H34.1234V3.35833H34.1089V3.37H34.0972V3.38458H34.0826V3.41375H34.0768V3.42542H34.0593V3.44H34.0476V3.44583H34.0359V3.4575H34.0214V3.48667H34.0097V3.49833H33.9951V3.51H33.9834V3.5275H33.9689V3.53917H33.9543V3.55083H33.9426V3.5625H33.9251V3.59167H33.9134V3.60625H33.8959V3.61792H33.8843V3.62958H33.8668V3.64708H33.8551V3.65875H33.8405V3.67917H33.8289V3.69083H33.8114V3.70833H33.8055V3.72H33.7939V3.73167H33.7793V3.74333H33.7676V3.76083H33.753V3.7725H33.7443C33.7414 3.77542 33.7414 3.77833 33.7414 3.77833V3.78417H33.7355L33.7209 3.79583C33.7209 3.79583 33.7151 3.80167 33.7093 3.80458V3.82208H33.6976V3.83667H33.6859V3.84833H33.6743V3.86H33.6655L33.6568 3.86875V3.8775H33.6509L33.6451 3.88333V3.89208H33.6393C33.6247 3.90958 33.6189 3.92125 33.5984 3.93875C33.5926 3.94458 33.5751 3.95917 33.5634 3.96792C33.5284 3.99125 33.4818 4.02917 33.4468 4.06125C33.4234 4.07583 33.4001 4.09625 33.3826 4.11083L33.3797 4.11375C33.333 4.15167 33.2864 4.18667 33.2339 4.2275V4.23042C33.1639 4.28875 33.0939 4.34417 33.0122 4.41125L33.0064 4.40833C32.8372 4.54542 32.6564 4.7 32.4522 4.87208V4.875C31.9476 5.30667 31.3468 5.86083 30.6759 6.53167L30.6205 6.58708C26.5664 10.6908 20.1759 19.2425 19.5022 33.0617C19.4439 34.205 19.4555 35.3162 19.5197 36.3983V36.4246C19.8434 41.87 21.5905 46.5192 23.778 50.2962C24.6472 51.8013 25.5864 53.1721 26.5401 54.3971C29.8243 58.6408 33.1784 61.1579 34.0359 61.7675C35.3514 64.7513 35.2289 69.8729 35.2289 69.8729L37.1422 70.5C37.1422 70.5 36.7514 65.5388 37.2997 63.1442C37.4689 62.3946 37.8714 61.7558 38.3409 61.2133C38.6559 60.9946 39.5922 60.3354 40.718 59.3321C40.7705 59.2767 40.8026 59.2271 40.8493 59.1746C45.3847 55.0388 53.8547 44.8538 50.9497 28.2608C47.1843 12.0442 38.303 6.71542 37.3493 4.67667C36.2964 3.23875 35.1618 0.5 35.1618 0.5Z" fill="black" fill-opacity="0.8"/>
</g>
<defs>
<clipPath id="clip0_207_1068">
<rect width="70" height="70" fill="white" transform="translate(0.5 0.5)"/>
</clipPath>
</defs>
</svg>
