<svg width="71" height="71" viewBox="0 0 71 71" fill="none" xmlns="http://www.w3.org/2000/svg">
<g clip-path="url(#clip0_207_1043)">
<path d="M35.5 69.9541C34.4531 69.9541 33.3906 69.708 32.4688 69.2432L22.8281 64.2529C21.3906 63.542 22.0938 63.2959 22.5625 63.1592C24.4844 62.5713 24.875 62.4482 26.9219 61.4229C27.1406 61.3135 27.4219 61.3545 27.6406 61.4775L35.0469 65.3193C35.3125 65.4561 35.6875 65.4561 35.9375 65.3193L64.7969 50.7451C65.0625 50.6084 65.2344 50.335 65.2344 50.0615V20.9131C65.2344 20.626 65.0625 20.3662 64.7812 20.2158L35.9375 5.65527C35.6719 5.51855 35.3125 5.51855 35.0469 5.65527L6.21875 20.2295C5.9375 20.3662 5.76562 20.6396 5.76562 20.9268V50.0615C5.76562 50.335 5.9375 50.6084 6.21875 50.7314L14.125 54.7236C18.4219 56.5967 21.0469 54.3955 21.0469 52.167V23.4014C21.0469 22.9912 21.4219 22.6768 21.8906 22.6768H25.5469C26 22.6768 26.3906 22.9912 26.3906 23.4014V52.1807C26.3906 57.1846 23.2656 60.0557 17.8438 60.0557C16.1719 60.0557 14.8594 60.0557 11.2031 58.4697L3.64062 54.6553C1.76562 53.7119 0.609375 51.9482 0.609375 50.0479V20.9131C0.609375 19.0264 1.76562 17.249 3.64062 16.3057L32.4688 1.73145C34.2969 0.829102 36.7188 0.829102 38.5312 1.73145L67.3906 16.3193C69.2656 17.2627 70.4219 19.0264 70.4219 20.9268V50.0615C70.4219 51.9482 69.2656 53.7119 67.3906 54.6689L38.5312 69.2432C37.6094 69.708 36.5625 69.9541 35.5 69.9541ZM58.7969 41.2295C58.7969 35.7744 54.5781 34.3252 45.7187 33.2998C36.75 32.2607 35.8438 31.7275 35.8438 29.8955C35.8438 28.3779 36.6094 26.3545 43.25 26.3545C49.1719 26.3545 51.3594 27.4756 52.2656 30.9756C52.3437 31.3037 52.6875 31.5498 53.0781 31.5498H56.8281C57.0625 31.5498 57.2812 31.4678 57.4375 31.3174C57.5937 31.167 57.6719 30.9619 57.6562 30.7568C57.0781 24.7275 52.5 21.9248 43.25 21.9248C35.0156 21.9248 30.1094 24.96 30.1094 30.0596C30.1094 35.583 35 37.1143 42.8906 37.7979C52.3437 38.6045 53.0781 39.8213 53.0781 41.4482C53.0781 44.2646 50.4844 45.4678 44.4062 45.4678C36.7656 45.4678 35.0938 43.7861 34.5312 40.4639C34.4688 40.1084 34.125 39.8486 33.7031 39.8486H29.9688C29.5 39.8486 29.1406 40.1768 29.1406 40.5732C29.1406 44.8252 31.7812 49.8975 44.4219 49.8975C53.5469 49.8838 58.7969 46.7256 58.7969 41.2295Z" fill="black" fill-opacity="0.8"/>
</g>
<defs>
<clipPath id="clip0_207_1043">
<rect width="70" height="70" fill="white" transform="translate(0.5 0.5)"/>
</clipPath>
</defs>
</svg>
