<svg width="71" height="71" viewBox="0 0 71 71" fill="none" xmlns="http://www.w3.org/2000/svg">
<g clip-path="url(#clip0_207_1035)">
<path d="M57.6758 24.7249C56.9375 24.4788 56.1992 24.2463 55.4609 24.0276C55.584 23.5217 55.6934 23.0159 55.8027 22.51C57.4844 14.3616 56.377 7.81274 52.6445 5.65259C49.0488 3.58813 43.1836 5.73462 37.25 10.9026C36.6621 11.4084 36.0879 11.9416 35.541 12.4749C35.1719 12.1194 34.7891 11.7639 34.4062 11.4221C28.1855 5.89868 21.9512 3.57446 18.2188 5.74829C14.6367 7.82642 13.5703 13.9924 15.0742 21.7034C15.2246 22.469 15.3887 23.2209 15.5801 23.9866C14.7051 24.2327 13.8438 24.5061 13.0371 24.7932C5.73633 27.3225 0.5 31.3147 0.5 35.4436C0.5 39.7092 6.07813 43.9885 13.666 46.5862C14.2812 46.7913 14.8965 46.9963 15.5254 47.1741C15.3203 47.9944 15.1426 48.801 14.9785 49.635C13.543 57.2229 14.6641 63.2385 18.2461 65.303C21.9375 67.4358 28.1445 65.2483 34.1875 59.9573C34.666 59.5334 35.1445 59.0959 35.623 58.6311C36.2246 59.219 36.8535 59.7795 37.4824 60.3264C43.334 65.3577 49.1172 67.3948 52.6855 65.3303C56.377 63.1975 57.5801 56.7307 56.0215 48.8557C55.8984 48.2542 55.7617 47.6389 55.6113 47.01C56.0488 46.887 56.4727 46.7502 56.8965 46.6135C64.7852 44.0022 70.5 39.7776 70.5 35.4436C70.5 31.301 65.1133 27.2815 57.6758 24.7249ZM39.1777 13.1174C44.2637 8.68774 49.0078 6.95142 51.168 8.19556C53.4785 9.52173 54.3672 14.8811 52.918 21.9221C52.8223 22.387 52.7266 22.8381 52.6035 23.2893C49.5684 22.6057 46.4922 22.1135 43.4023 21.8401C41.625 19.2971 39.6836 16.8635 37.5781 14.5803C38.1113 14.0745 38.6309 13.5959 39.1777 13.1174ZM23.3594 42.5393C24.0566 43.7288 24.7676 44.9182 25.5195 46.0803C23.3867 45.8479 21.2676 45.5061 19.1758 45.0549C19.7773 43.0862 20.5293 41.0491 21.4043 38.9709C22.0332 40.1741 22.6758 41.3635 23.3594 42.5393ZM19.2168 26.092C21.1855 25.6545 23.2773 25.2991 25.4512 25.0256C24.7266 26.1604 24.0156 27.3225 23.3457 28.4983C22.6758 29.6604 22.0195 30.8499 21.4043 32.053C20.543 30.0159 19.8184 28.0198 19.2168 26.092ZM22.9629 35.512C23.8652 33.6252 24.8496 31.7795 25.8887 29.9612C26.9277 28.1428 28.0488 26.3792 29.2246 24.6428C31.2754 24.4924 33.3672 24.4104 35.5 24.4104C37.6328 24.4104 39.7383 24.4924 41.7754 24.6428C42.9375 26.3655 44.0449 28.1291 45.0977 29.9338C46.1504 31.7385 47.1348 33.5842 48.0645 35.4573C47.1484 37.344 46.1641 39.2034 45.1113 41.0354C44.0723 42.8538 42.9648 44.6174 41.8027 46.3674C39.7656 46.5178 37.6465 46.5862 35.5 46.5862C33.3535 46.5862 31.2754 46.5178 29.2656 46.3948C28.0762 44.6584 26.9551 42.8811 25.9023 41.0627C24.8496 39.2444 23.8789 37.3987 22.9629 35.512ZM47.6543 42.512C48.3516 41.3088 49.0078 40.092 49.6504 38.8616C50.5254 40.844 51.291 42.8538 51.9609 44.9182C49.8418 45.3967 47.6953 45.7659 45.5352 46.012C46.2734 44.8635 46.9707 43.6877 47.6543 42.512ZM49.623 32.053C48.9805 30.8499 48.3242 29.6467 47.6406 28.4709C46.9707 27.3088 46.2734 26.1604 45.5488 25.0256C47.75 25.2991 49.8555 25.6682 51.8242 26.1194C51.1953 28.1428 50.457 30.1116 49.623 32.053ZM35.5273 16.6721C36.9629 18.2307 38.3164 19.8713 39.5742 21.5667C36.8672 21.4436 34.1465 21.4436 31.4395 21.5667C32.7793 19.803 34.1602 18.1624 35.5273 16.6721ZM19.668 8.29126C21.9648 6.95142 27.0645 8.86548 32.4375 13.6233C32.7793 13.9241 33.1211 14.2522 33.4766 14.5803C31.3574 16.8635 29.4023 19.2971 27.6113 21.8401C24.5215 22.1135 21.459 22.592 18.4238 23.262C18.2461 22.5647 18.0957 21.8538 17.9453 21.1428C16.6602 14.5256 17.5078 9.5354 19.668 8.29126ZM16.3184 44.3303C15.7441 44.1663 15.1836 43.9885 14.623 43.7971C11.7109 42.8811 8.40234 41.4319 6.00977 39.5315C4.62891 38.5745 3.69922 37.0979 3.43945 35.4436C3.43945 32.9417 7.75977 29.7424 13.9941 27.5686C14.7734 27.2952 15.5664 27.0491 16.3594 26.8166C17.2891 29.7834 18.4102 32.6956 19.709 35.512C18.3965 38.3694 17.2617 41.3225 16.3184 44.3303ZM32.2598 57.7288C30.0039 59.7932 27.3926 61.4338 24.5488 62.5549C23.0312 63.2795 21.2812 63.3479 19.7227 62.7327C17.5488 61.4749 16.6465 56.6487 17.877 50.1545C18.0273 49.3889 18.1914 48.6233 18.3828 47.8713C21.4453 48.5276 24.5352 48.9788 27.666 49.2112C29.4707 51.7678 31.4531 54.2151 33.5723 56.512C33.1348 56.9358 32.6973 57.3459 32.2598 57.7288ZM35.6094 54.4065C34.2148 52.9026 32.8203 51.2346 31.4668 49.4436C32.7793 49.4983 34.1328 49.5256 35.5 49.5256C36.9082 49.5256 38.2891 49.4983 39.6562 49.4299C38.3984 51.1663 37.0449 52.8206 35.6094 54.4065ZM53.4785 58.5081C53.3555 60.176 52.5352 61.7346 51.2227 62.7874C49.0488 64.0452 44.4141 62.4045 39.4102 58.1116C38.8359 57.6194 38.2617 57.0862 37.6738 56.5393C39.7656 54.2288 41.6934 51.7815 43.4434 49.2112C46.5742 48.9514 49.6914 48.4729 52.7676 47.7756C52.9043 48.3362 53.0273 48.8967 53.1367 49.4436C53.8066 52.3967 53.916 55.4729 53.4785 58.5081ZM55.9668 43.8108C55.584 43.9338 55.2012 44.0569 54.8047 44.1663C53.8477 41.1858 52.6719 38.2737 51.3184 35.4436C52.6309 32.6545 53.7383 29.7834 54.668 26.844C55.3789 27.0491 56.0625 27.2678 56.7188 27.4866C63.0898 29.6741 67.5605 32.928 67.5605 35.4163C67.5605 38.0959 62.7891 41.5549 55.9668 43.8108ZM35.5 41.76C38.959 41.76 41.7617 38.9573 41.7617 35.4983C41.7617 32.0393 38.959 29.2366 35.5 29.2366C32.041 29.2366 29.2383 32.0393 29.2383 35.4983C29.2383 38.9573 32.041 41.76 35.5 41.76Z" fill="black" fill-opacity="0.8"/>
</g>
<defs>
<clipPath id="clip0_207_1035">
<rect width="70" height="70" fill="white" transform="translate(0.5 0.5)"/>
</clipPath>
</defs>
</svg>
