<svg width="75" height="71" viewBox="0 0 75 71" fill="none" xmlns="http://www.w3.org/2000/svg">
<g clip-path="url(#clip0_207_1081)">
<path d="M51.9672 48.8114C54.735 48.5416 56.8347 46.2934 56.7391 43.5958C56.6437 40.8981 54.2575 38.7398 51.3944 38.7398H51.2034C48.245 38.8299 45.9544 41.1679 46.0497 43.9554C46.1453 45.3044 46.7178 46.4734 47.5769 47.2827C44.3319 53.3077 39.3691 57.7139 31.9247 61.4009C26.8662 63.9185 21.6169 64.8177 16.3677 64.1883C12.0729 63.6487 8.73247 61.8503 6.63278 58.8829C3.57866 54.4767 3.29234 49.7106 5.86925 44.9447C7.68262 41.5276 10.5458 39.0096 12.3592 37.7508C11.9774 36.5818 11.4048 34.6034 11.1185 33.1646C-2.72042 42.6067 -1.28881 55.3759 2.91058 61.4009C6.06012 65.8969 12.4547 68.6846 19.5172 68.6846C21.4261 68.6846 23.3349 68.5047 25.2437 68.0552C37.46 65.8071 46.7178 58.9727 51.9672 48.8114ZM68.7647 37.6606C61.5112 29.6575 50.8219 25.2513 38.6053 25.2513H37.0784C36.2194 23.6326 34.4059 22.5535 32.4019 22.5535H32.2109C29.2522 22.6435 26.9616 24.9815 27.0571 27.7691C27.1525 30.467 29.5385 32.625 32.4019 32.625H32.5925C34.6922 32.5352 36.5056 31.2761 37.2691 29.5676H38.9872C46.2406 29.5676 53.1125 31.5459 59.3159 35.4128C64.0881 38.3802 67.5237 42.2468 69.4328 46.9228C71.0553 50.6999 70.9597 54.3866 69.2419 57.5339C66.5694 62.3001 62.0837 64.9079 56.1666 64.9079C52.3487 64.9079 48.7222 63.8287 46.8134 63.0193C45.7634 63.9185 43.8547 65.3573 42.5184 66.2565C46.6225 68.0552 50.8219 69.0443 54.8303 69.0443C63.9925 69.0443 70.7687 64.2784 73.3456 59.5123C76.1134 54.2967 75.9228 45.3044 68.7647 37.6606ZM20.2808 50.34C20.3762 53.0379 22.7622 55.1959 25.6255 55.1959H25.8163C28.775 55.1061 31.0656 52.7681 30.9701 49.9804C30.8747 47.2827 28.4887 45.1244 25.6255 45.1244H25.4346C25.2437 45.1244 24.9574 45.1244 24.7665 45.2145C20.8534 39.0994 19.2309 32.4451 19.8036 25.2513C20.1853 19.8558 22.0942 15.1798 25.4346 11.313C28.2023 7.98584 33.5469 6.3672 37.1737 6.27728C47.2906 6.09744 51.5853 17.9674 51.8716 22.7334C53.1125 23.0032 55.2122 23.6326 56.6437 24.0823C55.4984 9.51455 45.9544 1.96094 36.7919 1.96094C28.2023 1.96094 20.2808 7.806 17.1312 16.4387C12.741 27.949 15.6042 39.0096 20.9489 47.7322C20.4717 48.3616 20.1853 49.3509 20.2808 50.34Z" fill="black" fill-opacity="0.8"/>
</g>
<defs>
<clipPath id="clip0_207_1081">
<rect width="75" height="70" fill="white" transform="translate(0 0.5)"/>
</clipPath>
</defs>
</svg>
