<svg width="71" height="71" viewBox="0 0 71 71" fill="none" xmlns="http://www.w3.org/2000/svg">
<path d="M54.4585 28.2407C52.2711 27.4873 50.3404 26.1328 48.8877 24.3323C47.2866 22.3263 45.2478 20.7131 42.9275 19.6162C40.6071 18.5192 38.0665 17.9674 35.5002 18.0032C32.0479 17.7587 28.6302 18.8235 25.9277 20.9855C23.2252 23.1475 21.4361 26.2481 20.9168 29.6698C21.9396 27.9585 23.479 26.6157 25.3134 25.8348C27.1478 25.0538 29.1827 24.875 31.1252 25.324C33.3088 26.0993 35.2364 27.4617 36.696 29.2615C38.3059 31.2515 40.3485 32.848 42.6684 33.9296C44.9882 35.0112 47.5243 35.5494 50.0835 35.5032C53.5358 35.7477 56.9535 34.6829 59.656 32.5209C62.3585 30.3588 64.1475 27.2582 64.6668 23.8365C63.6626 25.5683 62.1281 26.9314 60.29 27.7244C58.4518 28.5175 56.4074 28.6984 54.4585 28.2407ZM16.5418 42.7657C18.7292 43.519 20.6599 44.8736 22.1127 46.674C23.7138 48.68 25.7525 50.2932 28.0729 51.3902C30.3932 52.4872 32.9338 53.0389 35.5002 53.0032C38.9524 53.2477 42.3701 52.1829 45.0726 50.0209C47.7752 47.8588 49.5642 44.7582 50.0835 41.3365C49.0607 43.0479 47.5213 44.3906 45.6869 45.1716C43.8525 45.9525 41.8177 46.1313 39.8752 45.6823C37.6915 44.9071 35.7639 43.5446 34.3043 41.7448C32.6901 39.7598 30.6467 38.1668 28.3278 37.0856C26.0089 36.0045 23.475 35.4634 20.9168 35.5032C17.4646 35.2587 14.0469 36.3235 11.3443 38.4855C8.64183 40.6475 6.85279 43.7481 6.3335 47.1698C7.33772 45.438 8.87219 44.0749 10.7103 43.2819C12.5485 42.4889 14.5929 42.3079 16.5418 42.7657Z" fill="black" fill-opacity="0.8"/>
</svg>
