<svg width="45" height="45" viewBox="0 0 45 45" fill="none" xmlns="http://www.w3.org/2000/svg">
<path d="M22.655 40.9428C32.8405 40.9428 41.0951 32.6867 41.0951 22.5027C41.0951 12.3186 32.8405 4.0625 22.655 4.0625C12.4709 4.0625 4.21484 12.3186 4.21484 22.5027C4.21484 32.6867 12.4709 40.9428 22.655 40.9428ZM22.655 5.53766C32.0094 5.53766 39.62 13.1483 39.62 22.5027C39.62 31.857 32.0094 39.4676 22.655 39.4676C13.2992 39.4676 5.69 31.857 5.69 22.5027C5.69 13.1483 13.2992 5.53766 22.655 5.53766Z" fill="url(#paint0_linear_525_58)"/>
<path d="M20 30.02L20.9275 30.9475L28.9 22.9737L20.9275 15L20 15.9275L26.8675 22.9746L20 30.02Z" fill="url(#paint1_linear_525_58)"/>
<defs>
<linearGradient id="paint0_linear_525_58" x1="22.655" y1="4.0625" x2="22.655" y2="40.9428" gradientUnits="userSpaceOnUse">
<stop stop-color="#FF1919"/>
<stop offset="0.5" stop-color="#6C73D5" stop-opacity="0.86"/>
<stop offset="1" stop-color="#2F35AE"/>
</linearGradient>
<linearGradient id="paint1_linear_525_58" x1="19.6906" y1="15" x2="19.6906" y2="30.9475" gradientUnits="userSpaceOnUse">
<stop stop-color="#EF3F3F"/>
<stop offset="0.5" stop-color="#6C73D5" stop-opacity="0.86"/>
<stop offset="1" stop-color="#2F35AE"/>
</linearGradient>
</defs>
</svg>
