<svg width="1440" height="2419" viewBox="0 0 1440 2419" fill="none" xmlns="http://www.w3.org/2000/svg">
<mask id="mask0_525_77" style="mask-type:luminance" maskUnits="userSpaceOnUse" x="-151" y="0" width="1741" height="2419">
<path d="M-151 0H1590V2419H-151V0Z" fill="white"/>
</mask>
<g mask="url(#mask0_525_77)">
<path d="M-109.138 -380.203H-237.072V-169.827M-109.138 -380.203V-169.827M-109.138 -380.203H18.7961M-237.072 -169.827H-109.138M-237.072 -169.827V40.546M-109.138 -169.827H18.7961M-109.138 -169.827V40.546M18.7961 -380.203V-169.827M18.7961 -380.203H146.73M18.7961 -169.827H146.73M18.7961 -169.827V40.546M-109.138 40.546H-237.072M-109.138 40.546H18.7961M-109.138 40.546V250.922M-237.072 40.546V250.922M146.73 -380.203V-169.827M146.73 -380.203H274.664M146.73 -169.827H274.664M146.73 -169.827V40.546M18.7961 40.546H146.73M18.7961 40.546V250.922M274.664 -380.203V-169.827M274.664 -380.203H402.599M274.664 -169.827H402.599M274.664 -169.827V40.546M146.73 40.546H274.664M146.73 40.546V250.922M402.599 -380.203V-169.827M402.599 -380.203H530.533M402.599 -169.827H530.533M402.599 -169.827V40.546M274.664 40.546H402.599M274.664 40.546V250.922M530.533 -380.203V-169.827M530.533 -380.203H658.467M530.533 -169.827H658.467M530.533 -169.827V40.546M402.599 40.546H530.533M402.599 40.546V250.922M658.467 -380.203V-169.827M658.467 -380.203H786.401M658.467 -169.827H786.401M658.467 -169.827V40.546M530.533 40.546H658.467M530.533 40.546V250.922M786.401 -380.203V-169.827M786.401 -380.203H914.335M786.401 -169.827H914.335M786.401 -169.827V40.546M658.467 40.546H786.401M658.467 40.546V250.922M914.335 -380.203V-169.827M914.335 -380.203H1042.27M914.335 -169.827H1042.27M914.335 -169.827V40.546M786.401 40.546H914.335M786.401 40.546V250.922M1042.27 -380.203V-169.827M1042.27 -380.203H1170.2M1042.27 -169.827H1170.2M1042.27 -169.827V40.546M914.335 40.546H1042.27M914.335 40.546V250.922M1170.2 -380.203V-169.827M1170.2 -380.203H1298.14M1170.2 -169.827H1298.14M1170.2 -169.827V40.546M1042.27 40.546H1170.2M1042.27 40.546V250.922M1298.14 -380.203V-169.827M1298.14 -380.203H1426.07M1298.14 -169.827H1426.07M1298.14 -169.827V40.546M1170.2 40.546H1298.14M1170.2 40.546V250.922M1426.07 -380.203V-169.827M1426.07 -380.203H1554.01M1426.07 -169.827H1554.01M1426.07 -169.827V40.546M1298.14 40.546H1426.07M1298.14 40.546V250.922M1554.01 -380.203V-169.827M1554.01 -380.203H1681.94V-169.827M1554.01 -169.827H1681.94M1554.01 -169.827V40.546M1426.07 40.546H1554.01M1426.07 40.546V250.922M1681.94 -169.827V40.546M1554.01 40.546H1681.94M1554.01 40.546V250.922M1681.94 40.546V250.922M-109.138 250.922H-237.072M-109.138 250.922H18.7961M-109.138 250.922V461.295M-237.072 250.922V461.295M18.7961 250.922H146.73M18.7961 250.922V461.295M146.73 250.922H274.664M146.73 250.922V461.295M274.664 250.922H402.599M274.664 250.922V461.295M402.599 250.922H530.533M402.599 250.922V461.295M530.533 250.922H658.467M530.533 250.922V461.295M658.467 250.922H786.401M658.467 250.922V461.295M786.401 250.922H914.335M786.401 250.922V461.295M914.335 250.922H1042.27M914.335 250.922V461.295M1042.27 250.922H1170.2M1042.27 250.922V461.295M1170.2 250.922H1298.14M1170.2 250.922V461.295M1298.14 250.922H1426.07M1298.14 250.922V461.295M1426.07 250.922H1554.01M1426.07 250.922V461.295M1554.01 250.922H1681.94M1554.01 250.922V461.295M1681.94 250.922V461.295M-109.138 461.295H-237.072M-109.138 461.295H18.7961M-109.138 461.295V671.671M-237.072 461.295V671.671M18.7961 461.295H146.73M18.7961 461.295V671.671M146.73 461.295H274.664M146.73 461.295V671.671M274.664 461.295H402.599M274.664 461.295V671.671M402.599 461.295H530.533M402.599 461.295V671.671M530.533 461.295H658.467M530.533 461.295V671.671M658.467 461.295H786.401M658.467 461.295V671.671M786.401 461.295H914.335M786.401 461.295V671.671M914.335 461.295H1042.27M914.335 461.295V671.671M1042.27 461.295H1170.2M1042.27 461.295V671.671M1170.2 461.295H1298.14M1170.2 461.295V671.671M1298.14 461.295H1426.07M1298.14 461.295V671.671M1426.07 461.295H1554.01M1426.07 461.295V671.671M1554.01 461.295H1681.94M1554.01 461.295V671.671M1681.94 461.295V671.671M-109.138 671.671H-237.072M-109.138 671.671H18.7961M-109.138 671.671V882.048M-237.072 671.671V882.048M18.7961 671.671H146.73M18.7961 671.671V882.048M146.73 671.671H274.664M146.73 671.671V882.048M274.664 671.671H402.599M274.664 671.671V882.048M402.599 671.671H530.533M402.599 671.671V882.048M530.533 671.671H658.467M530.533 671.671V882.048M658.467 671.671H786.401M658.467 671.671V882.048M786.401 671.671H914.335M786.401 671.671V882.048M914.335 671.671H1042.27M914.335 671.671V882.048M1042.27 671.671H1170.2M1042.27 671.671V882.048M1170.2 671.671H1298.14M1170.2 671.671V882.048M1298.14 671.671H1426.07M1298.14 671.671V882.048M1426.07 671.671H1554.01M1426.07 671.671V882.048M1554.01 671.671H1681.94M1554.01 671.671V882.048M1681.94 671.671V882.048M-109.138 882.048H-237.072M-109.138 882.048H18.7961M-109.138 882.048V1092.42M-237.072 882.048V1092.42M18.7961 882.048H146.73M18.7961 882.048V1092.42M146.73 882.048H274.664M146.73 882.048V1092.42M274.664 882.048H402.599M274.664 882.048V1092.42M402.599 882.048H530.533M402.599 882.048V1092.42M530.533 882.048H658.467M530.533 882.048V1092.42M658.467 882.048H786.401M658.467 882.048V1092.42M786.401 882.048H914.335M786.401 882.048V1092.42M914.335 882.048H1042.27M914.335 882.048V1092.42M1042.27 882.048H1170.2M1042.27 882.048V1092.42M1170.2 882.048H1298.14M1170.2 882.048V1092.42M1298.14 882.048H1426.07M1298.14 882.048V1092.42M1426.07 882.048H1554.01M1426.07 882.048V1092.42M1554.01 882.048H1681.94M1554.01 882.048V1092.42M1681.94 882.048V1092.42M-109.138 1092.42H-237.072M-109.138 1092.42H18.7961M-109.138 1092.42V1302.8M-237.072 1092.42V1302.8M18.7961 1092.42H146.73M18.7961 1092.42V1302.8M146.73 1092.42H274.664M146.73 1092.42V1302.8M274.664 1092.42H402.599M274.664 1092.42V1302.8M402.599 1092.42H530.533M402.599 1092.42V1302.8M530.533 1092.42H658.467M530.533 1092.42V1302.8M658.467 1092.42H786.401M658.467 1092.42V1302.8M786.401 1092.42H914.335M786.401 1092.42V1302.8M914.335 1092.42H1042.27M914.335 1092.42V1302.8M1042.27 1092.42H1170.2M1042.27 1092.42V1302.8M1170.2 1092.42H1298.14M1170.2 1092.42V1302.8M1298.14 1092.42H1426.07M1298.14 1092.42V1302.8M1426.07 1092.42H1554.01M1426.07 1092.42V1302.8M1554.01 1092.42H1681.94M1554.01 1092.42V1302.8M1681.94 1092.42V1302.8M-109.138 1302.8H-237.072M-109.138 1302.8H18.7961M-109.138 1302.8V1513.17M-237.072 1302.8V1513.17M18.7961 1302.8H146.73M18.7961 1302.8V1513.17M146.73 1302.8H274.664M146.73 1302.8V1513.17M274.664 1302.8H402.599M274.664 1302.8V1513.17M402.599 1302.8H530.533M402.599 1302.8V1513.17M530.533 1302.8H658.467M530.533 1302.8V1513.17M658.467 1302.8H786.401M658.467 1302.8V1513.17M786.401 1302.8H914.335M786.401 1302.8V1513.17M914.335 1302.8H1042.27M914.335 1302.8V1513.17M1042.27 1302.8H1170.2M1042.27 1302.8V1513.17M1170.2 1302.8H1298.14M1170.2 1302.8V1513.17M1298.14 1302.8H1426.07M1298.14 1302.8V1513.17M1426.07 1302.8H1554.01M1426.07 1302.8V1513.17M1554.01 1302.8H1681.94M1554.01 1302.8V1513.17M1681.94 1302.8V1513.17M-109.138 1513.17H-237.072M-109.138 1513.17H18.7961M-109.138 1513.17V1723.55M-237.072 1513.17V1723.55M18.7961 1513.17H146.73M18.7961 1513.17V1723.55M146.73 1513.17H274.664M146.73 1513.17V1723.55M274.664 1513.17H402.599M274.664 1513.17V1723.55M402.599 1513.17H530.533M402.599 1513.17V1723.55M530.533 1513.17H658.467M530.533 1513.17V1723.55M658.467 1513.17H786.401M658.467 1513.17V1723.55M786.401 1513.17H914.335M786.401 1513.17V1723.55M914.335 1513.17H1042.27M914.335 1513.17V1723.55M1042.27 1513.17H1170.2M1042.27 1513.17V1723.55M1170.2 1513.17H1298.14M1170.2 1513.17V1723.55M1298.14 1513.17H1426.07M1298.14 1513.17V1723.55M1426.07 1513.17H1554.01M1426.07 1513.17V1723.55M1554.01 1513.17H1681.94M1554.01 1513.17V1723.55M1681.94 1513.17V1723.55M-109.138 1723.55H-237.072M-109.138 1723.55H18.7961M-109.138 1723.55V1933.92M-237.072 1723.55V1933.92M18.7961 1723.55H146.73M18.7961 1723.55V1933.92M146.73 1723.55H274.664M146.73 1723.55V1933.92M274.664 1723.55H402.599M274.664 1723.55V1933.92M402.599 1723.55H530.533M402.599 1723.55V1933.92M530.533 1723.55H658.467M530.533 1723.55V1933.92M658.467 1723.55H786.401M658.467 1723.55V1933.92M786.401 1723.55H914.335M786.401 1723.55V1933.92M914.335 1723.55H1042.27M914.335 1723.55V1933.92M1042.27 1723.55H1170.2M1042.27 1723.55V1933.92M1170.2 1723.55H1298.14M1170.2 1723.55V1933.92M1298.14 1723.55H1426.07M1298.14 1723.55V1933.92M1426.07 1723.55H1554.01M1426.07 1723.55V1933.92M1554.01 1723.55H1681.94M1554.01 1723.55V1933.92M1681.94 1723.55V1933.92M-109.138 1933.92H-237.072M-109.138 1933.92H18.7961M-109.138 1933.92V2144.29M-237.072 1933.92V2144.29M18.7961 1933.92H146.73M18.7961 1933.92V2144.29M146.73 1933.92H274.664M146.73 1933.92V2144.29M274.664 1933.92H402.599M274.664 1933.92V2144.29M402.599 1933.92H530.533M402.599 1933.92V2144.29M530.533 1933.92H658.467M530.533 1933.92V2144.29M658.467 1933.92H786.401M658.467 1933.92V2144.29M786.401 1933.92H914.335M786.401 1933.92V2144.29M914.335 1933.92H1042.27M914.335 1933.92V2144.29M1042.27 1933.92H1170.2M1042.27 1933.92V2144.29M1170.2 1933.92H1298.14M1170.2 1933.92V2144.29M1298.14 1933.92H1426.07M1298.14 1933.92V2144.29M1426.07 1933.92H1554.01M1426.07 1933.92V2144.29M1554.01 1933.92H1681.94M1554.01 1933.92V2144.29M1681.94 1933.92V2144.29M-109.138 2144.29H-237.072M-109.138 2144.29H18.7961M-109.138 2144.29V2354.67M-237.072 2144.29V2354.67M18.7961 2144.29H146.73M18.7961 2144.29V2354.67M146.73 2144.29H274.664M146.73 2144.29V2354.67M274.664 2144.29H402.599M274.664 2144.29V2354.67M402.599 2144.29H530.533M402.599 2144.29V2354.67M530.533 2144.29H658.467M530.533 2144.29V2354.67M658.467 2144.29H786.401M658.467 2144.29V2354.67M786.401 2144.29H914.335M786.401 2144.29V2354.67M914.335 2144.29H1042.27M914.335 2144.29V2354.67M1042.27 2144.29H1170.2M1042.27 2144.29V2354.67M1170.2 2144.29H1298.14M1170.2 2144.29V2354.67M1298.14 2144.29H1426.07M1298.14 2144.29V2354.67M1426.07 2144.29H1554.01M1426.07 2144.29V2354.67M1554.01 2144.29H1681.94M1554.01 2144.29V2354.67M1681.94 2144.29V2354.67M-109.138 2354.67H-237.072M-109.138 2354.67H18.7961M-109.138 2354.67V2565.04M-237.072 2354.67V2565.04M18.7961 2354.67H146.73M18.7961 2354.67V2565.04M146.73 2354.67H274.664M146.73 2354.67V2565.04M274.664 2354.67H402.599M274.664 2354.67V2565.04M402.599 2354.67H530.533M402.599 2354.67V2565.04M530.533 2354.67H658.467M530.533 2354.67V2565.04M658.467 2354.67H786.401M658.467 2354.67V2565.04M786.401 2354.67H914.335M786.401 2354.67V2565.04M914.335 2354.67H1042.27M914.335 2354.67V2565.04M1042.27 2354.67H1170.2M1042.27 2354.67V2565.04M1170.2 2354.67H1298.14M1170.2 2354.67V2565.04M1298.14 2354.67H1426.07M1298.14 2354.67V2565.04M1426.07 2354.67H1554.01M1426.07 2354.67V2565.04M1554.01 2354.67H1681.94M1554.01 2354.67V2565.04M1681.94 2354.67V2565.04M-109.138 2565.04H-237.072M-109.138 2565.04H18.7961M-109.138 2565.04V2775.42M-237.072 2565.04V2775.42H-109.138M18.7961 2565.04H146.73M18.7961 2565.04V2775.42M146.73 2565.04H274.664M146.73 2565.04V2775.42M274.664 2565.04H402.599M274.664 2565.04V2775.42M402.599 2565.04H530.533M402.599 2565.04V2775.42M530.533 2565.04H658.467M530.533 2565.04V2775.42M658.467 2565.04H786.401M658.467 2565.04V2775.42M786.401 2565.04H914.335M786.401 2565.04V2775.42M914.335 2565.04H1042.27M914.335 2565.04V2775.42M1042.27 2565.04H1170.2M1042.27 2565.04V2775.42M1170.2 2565.04H1298.14M1170.2 2565.04V2775.42M1298.14 2565.04H1426.07M1298.14 2565.04V2775.42M1426.07 2565.04H1554.01M1426.07 2565.04V2775.42M1554.01 2565.04H1681.94M1554.01 2565.04V2775.42M1681.94 2565.04V2775.42H1554.01M-109.138 2775.42H18.7961M18.7961 2775.42H146.73M146.73 2775.42H274.664M274.664 2775.42H402.599M402.599 2775.42H530.533M530.533 2775.42H658.467M658.467 2775.42H786.401M786.401 2775.42H914.335M914.335 2775.42H1042.27M1042.27 2775.42H1170.2M1170.2 2775.42H1298.14M1298.14 2775.42H1426.07M1426.07 2775.42H1554.01" stroke="url(#paint0_radial_525_77)" stroke-opacity="0.2"/>
</g>
<defs>
<radialGradient id="paint0_radial_525_77" cx="0" cy="0" r="1" gradientUnits="userSpaceOnUse" gradientTransform="translate(723.505 1198.93) rotate(90) scale(1117.35 679.491)">
<stop stop-color="white"/>
<stop offset="1" stop-color="white" stop-opacity="0"/>
</radialGradient>
</defs>
</svg>
