<svg width="1741" height="4312" viewBox="0 0 1741 4312" fill="none" xmlns="http://www.w3.org/2000/svg">
<mask id="mask0_559_130" style="mask-type:luminance" maskUnits="userSpaceOnUse" x="0" y="0" width="1741" height="4312">
<path d="M0 0H1741V4312H0V0Z" fill="white"/>
</mask>
<g mask="url(#mask0_559_130)">
<path d="M38.9333 106H-89V380.468M38.9333 106V380.468M38.9333 106H166.867M-89 380.468H38.9333M-89 380.468V654.933M38.9333 380.468H166.867M38.9333 380.468V654.933M166.867 106V380.468M166.867 106H294.8M166.867 380.468H294.8M166.867 380.468V654.933M38.9333 654.933H-89M38.9333 654.933H166.867M38.9333 654.933V929.401M-89 654.933V929.401M294.8 106V380.468M294.8 106H422.733M294.8 380.468H422.733M294.8 380.468V654.933M166.867 654.933H294.8M166.867 654.933V929.401M422.733 106V380.468M422.733 106H550.667M422.733 380.468H550.667M422.733 380.468V654.933M294.8 654.933H422.733M294.8 654.933V929.401M550.667 106V380.468M550.667 106H678.6M550.667 380.468H678.6M550.667 380.468V654.933M422.733 654.933H550.667M422.733 654.933V929.401M678.6 106V380.468M678.6 106H806.533M678.6 380.468H806.533M678.6 380.468V654.933M550.667 654.933H678.6M550.667 654.933V929.401M806.533 106V380.468M806.533 106H934.467M806.533 380.468H934.467M806.533 380.468V654.933M678.6 654.933H806.533M678.6 654.933V929.401M934.467 106V380.468M934.467 106H1062.4M934.467 380.468H1062.4M934.467 380.468V654.933M806.533 654.933H934.467M806.533 654.933V929.401M1062.4 106V380.468M1062.4 106H1190.33M1062.4 380.468H1190.33M1062.4 380.468V654.933M934.467 654.933H1062.4M934.467 654.933V929.401M1190.33 106V380.468M1190.33 106H1318.27M1190.33 380.468H1318.27M1190.33 380.468V654.933M1062.4 654.933H1190.33M1062.4 654.933V929.401M1318.27 106V380.468M1318.27 106H1446.2M1318.27 380.468H1446.2M1318.27 380.468V654.933M1190.33 654.933H1318.27M1190.33 654.933V929.401M1446.2 106V380.468M1446.2 106H1574.13M1446.2 380.468H1574.13M1446.2 380.468V654.933M1318.27 654.933H1446.2M1318.27 654.933V929.401M1574.13 106V380.468M1574.13 106H1702.07M1574.13 380.468H1702.07M1574.13 380.468V654.933M1446.2 654.933H1574.13M1446.2 654.933V929.401M1702.07 106V380.468M1702.07 106H1830V380.468M1702.07 380.468H1830M1702.07 380.468V654.933M1574.13 654.933H1702.07M1574.13 654.933V929.401M1830 380.468V654.933M1702.07 654.933H1830M1702.07 654.933V929.401M1830 654.933V929.401M38.9333 929.401H-89M38.9333 929.401H166.867M38.9333 929.401V1203.87M-89 929.401V1203.87M166.867 929.401H294.8M166.867 929.401V1203.87M294.8 929.401H422.733M294.8 929.401V1203.87M422.733 929.401H550.667M422.733 929.401V1203.87M550.667 929.401H678.6M550.667 929.401V1203.87M678.6 929.401H806.533M678.6 929.401V1203.87M806.533 929.401H934.467M806.533 929.401V1203.87M934.467 929.401H1062.4M934.467 929.401V1203.87M1062.4 929.401H1190.33M1062.4 929.401V1203.87M1190.33 929.401H1318.27M1190.33 929.401V1203.87M1318.27 929.401H1446.2M1318.27 929.401V1203.87M1446.2 929.401H1574.13M1446.2 929.401V1203.87M1574.13 929.401H1702.07M1574.13 929.401V1203.87M1702.07 929.401H1830M1702.07 929.401V1203.87M1830 929.401V1203.87M38.9333 1203.87H-89M38.9333 1203.87H166.867M38.9333 1203.87V1478.33M-89 1203.87V1478.33M166.867 1203.87H294.8M166.867 1203.87V1478.33M294.8 1203.87H422.733M294.8 1203.87V1478.33M422.733 1203.87H550.667M422.733 1203.87V1478.33M550.667 1203.87H678.6M550.667 1203.87V1478.33M678.6 1203.87H806.533M678.6 1203.87V1478.33M806.533 1203.87H934.467M806.533 1203.87V1478.33M934.467 1203.87H1062.4M934.467 1203.87V1478.33M1062.4 1203.87H1190.33M1062.4 1203.87V1478.33M1190.33 1203.87H1318.27M1190.33 1203.87V1478.33M1318.27 1203.87H1446.2M1318.27 1203.87V1478.33M1446.2 1203.87H1574.13M1446.2 1203.87V1478.33M1574.13 1203.87H1702.07M1574.13 1203.87V1478.33M1702.07 1203.87H1830M1702.07 1203.87V1478.33M1830 1203.87V1478.33M38.9333 1478.33H-89M38.9333 1478.33H166.867M38.9333 1478.33V1752.8M-89 1478.33V1752.8M166.867 1478.33H294.8M166.867 1478.33V1752.8M294.8 1478.33H422.733M294.8 1478.33V1752.8M422.733 1478.33H550.667M422.733 1478.33V1752.8M550.667 1478.33H678.6M550.667 1478.33V1752.8M678.6 1478.33H806.533M678.6 1478.33V1752.8M806.533 1478.33H934.467M806.533 1478.33V1752.8M934.467 1478.33H1062.4M934.467 1478.33V1752.8M1062.4 1478.33H1190.33M1062.4 1478.33V1752.8M1190.33 1478.33H1318.27M1190.33 1478.33V1752.8M1318.27 1478.33H1446.2M1318.27 1478.33V1752.8M1446.2 1478.33H1574.13M1446.2 1478.33V1752.8M1574.13 1478.33H1702.07M1574.13 1478.33V1752.8M1702.07 1478.33H1830M1702.07 1478.33V1752.8M1830 1478.33V1752.8M38.9333 1752.8H-89M38.9333 1752.8H166.867M38.9333 1752.8V2027.27M-89 1752.8V2027.27M166.867 1752.8H294.8M166.867 1752.8V2027.27M294.8 1752.8H422.733M294.8 1752.8V2027.27M422.733 1752.8H550.667M422.733 1752.8V2027.27M550.667 1752.8H678.6M550.667 1752.8V2027.27M678.6 1752.8H806.533M678.6 1752.8V2027.27M806.533 1752.8H934.467M806.533 1752.8V2027.27M934.467 1752.8H1062.4M934.467 1752.8V2027.27M1062.4 1752.8H1190.33M1062.4 1752.8V2027.27M1190.33 1752.8H1318.27M1190.33 1752.8V2027.27M1318.27 1752.8H1446.2M1318.27 1752.8V2027.27M1446.2 1752.8H1574.13M1446.2 1752.8V2027.27M1574.13 1752.8H1702.07M1574.13 1752.8V2027.27M1702.07 1752.8H1830M1702.07 1752.8V2027.27M1830 1752.8V2027.27M38.9333 2027.27H-89M38.9333 2027.27H166.867M38.9333 2027.27V2301.73M-89 2027.27V2301.73M166.867 2027.27H294.8M166.867 2027.27V2301.73M294.8 2027.27H422.733M294.8 2027.27V2301.73M422.733 2027.27H550.667M422.733 2027.27V2301.73M550.667 2027.27H678.6M550.667 2027.27V2301.73M678.6 2027.27H806.533M678.6 2027.27V2301.73M806.533 2027.27H934.467M806.533 2027.27V2301.73M934.467 2027.27H1062.4M934.467 2027.27V2301.73M1062.4 2027.27H1190.33M1062.4 2027.27V2301.73M1190.33 2027.27H1318.27M1190.33 2027.27V2301.73M1318.27 2027.27H1446.2M1318.27 2027.27V2301.73M1446.2 2027.27H1574.13M1446.2 2027.27V2301.73M1574.13 2027.27H1702.07M1574.13 2027.27V2301.73M1702.07 2027.27H1830M1702.07 2027.27V2301.73M1830 2027.27V2301.73M38.9333 2301.73H-89M38.9333 2301.73H166.867M38.9333 2301.73V2576.2M-89 2301.73V2576.2M166.867 2301.73H294.8M166.867 2301.73V2576.2M294.8 2301.73H422.733M294.8 2301.73V2576.2M422.733 2301.73H550.667M422.733 2301.73V2576.2M550.667 2301.73H678.6M550.667 2301.73V2576.2M678.6 2301.73H806.533M678.6 2301.73V2576.2M806.533 2301.73H934.467M806.533 2301.73V2576.2M934.467 2301.73H1062.4M934.467 2301.73V2576.2M1062.4 2301.73H1190.33M1062.4 2301.73V2576.2M1190.33 2301.73H1318.27M1190.33 2301.73V2576.2M1318.27 2301.73H1446.2M1318.27 2301.73V2576.2M1446.2 2301.73H1574.13M1446.2 2301.73V2576.2M1574.13 2301.73H1702.07M1574.13 2301.73V2576.2M1702.07 2301.73H1830M1702.07 2301.73V2576.2M1830 2301.73V2576.2M38.9333 2576.2H-89M38.9333 2576.2H166.867M38.9333 2576.2V2850.67M-89 2576.2V2850.67M166.867 2576.2H294.8M166.867 2576.2V2850.67M294.8 2576.2H422.733M294.8 2576.2V2850.67M422.733 2576.2H550.667M422.733 2576.2V2850.67M550.667 2576.2H678.6M550.667 2576.2V2850.67M678.6 2576.2H806.533M678.6 2576.2V2850.67M806.533 2576.2H934.467M806.533 2576.2V2850.67M934.467 2576.2H1062.4M934.467 2576.2V2850.67M1062.4 2576.2H1190.33M1062.4 2576.2V2850.67M1190.33 2576.2H1318.27M1190.33 2576.2V2850.67M1318.27 2576.2H1446.2M1318.27 2576.2V2850.67M1446.2 2576.2H1574.13M1446.2 2576.2V2850.67M1574.13 2576.2H1702.07M1574.13 2576.2V2850.67M1702.07 2576.2H1830M1702.07 2576.2V2850.67M1830 2576.2V2850.67M38.9333 2850.67H-89M38.9333 2850.67H166.867M38.9333 2850.67V3125.13M-89 2850.67V3125.13M166.867 2850.67H294.8M166.867 2850.67V3125.13M294.8 2850.67H422.733M294.8 2850.67V3125.13M422.733 2850.67H550.667M422.733 2850.67V3125.13M550.667 2850.67H678.6M550.667 2850.67V3125.13M678.6 2850.67H806.533M678.6 2850.67V3125.13M806.533 2850.67H934.467M806.533 2850.67V3125.13M934.467 2850.67H1062.4M934.467 2850.67V3125.13M1062.4 2850.67H1190.33M1062.4 2850.67V3125.13M1190.33 2850.67H1318.27M1190.33 2850.67V3125.13M1318.27 2850.67H1446.2M1318.27 2850.67V3125.13M1446.2 2850.67H1574.13M1446.2 2850.67V3125.13M1574.13 2850.67H1702.07M1574.13 2850.67V3125.13M1702.07 2850.67H1830M1702.07 2850.67V3125.13M1830 2850.67V3125.13M38.9333 3125.13H-89M38.9333 3125.13H166.867M38.9333 3125.13V3399.6M-89 3125.13V3399.6M166.867 3125.13H294.8M166.867 3125.13V3399.6M294.8 3125.13H422.733M294.8 3125.13V3399.6M422.733 3125.13H550.667M422.733 3125.13V3399.6M550.667 3125.13H678.6M550.667 3125.13V3399.6M678.6 3125.13H806.533M678.6 3125.13V3399.6M806.533 3125.13H934.467M806.533 3125.13V3399.6M934.467 3125.13H1062.4M934.467 3125.13V3399.6M1062.4 3125.13H1190.33M1062.4 3125.13V3399.6M1190.33 3125.13H1318.27M1190.33 3125.13V3399.6M1318.27 3125.13H1446.2M1318.27 3125.13V3399.6M1446.2 3125.13H1574.13M1446.2 3125.13V3399.6M1574.13 3125.13H1702.07M1574.13 3125.13V3399.6M1702.07 3125.13H1830M1702.07 3125.13V3399.6M1830 3125.13V3399.6M38.9333 3399.6H-89M38.9333 3399.6H166.867M38.9333 3399.6V3674.07M-89 3399.6V3674.07M166.867 3399.6H294.8M166.867 3399.6V3674.07M294.8 3399.6H422.733M294.8 3399.6V3674.07M422.733 3399.6H550.667M422.733 3399.6V3674.07M550.667 3399.6H678.6M550.667 3399.6V3674.07M678.6 3399.6H806.533M678.6 3399.6V3674.07M806.533 3399.6H934.467M806.533 3399.6V3674.07M934.467 3399.6H1062.4M934.467 3399.6V3674.07M1062.4 3399.6H1190.33M1062.4 3399.6V3674.07M1190.33 3399.6H1318.27M1190.33 3399.6V3674.07M1318.27 3399.6H1446.2M1318.27 3399.6V3674.07M1446.2 3399.6H1574.13M1446.2 3399.6V3674.07M1574.13 3399.6H1702.07M1574.13 3399.6V3674.07M1702.07 3399.6H1830M1702.07 3399.6V3674.07M1830 3399.6V3674.07M38.9333 3674.07H-89M38.9333 3674.07H166.867M38.9333 3674.07V3948.53M-89 3674.07V3948.53M166.867 3674.07H294.8M166.867 3674.07V3948.53M294.8 3674.07H422.733M294.8 3674.07V3948.53M422.733 3674.07H550.667M422.733 3674.07V3948.53M550.667 3674.07H678.6M550.667 3674.07V3948.53M678.6 3674.07H806.533M678.6 3674.07V3948.53M806.533 3674.07H934.467M806.533 3674.07V3948.53M934.467 3674.07H1062.4M934.467 3674.07V3948.53M1062.4 3674.07H1190.33M1062.4 3674.07V3948.53M1190.33 3674.07H1318.27M1190.33 3674.07V3948.53M1318.27 3674.07H1446.2M1318.27 3674.07V3948.53M1446.2 3674.07H1574.13M1446.2 3674.07V3948.53M1574.13 3674.07H1702.07M1574.13 3674.07V3948.53M1702.07 3674.07H1830M1702.07 3674.07V3948.53M1830 3674.07V3948.53M38.9333 3948.53H-89M38.9333 3948.53H166.867M38.9333 3948.53V4223M-89 3948.53V4223H38.9333M166.867 3948.53H294.8M166.867 3948.53V4223M294.8 3948.53H422.733M294.8 3948.53V4223M422.733 3948.53H550.667M422.733 3948.53V4223M550.667 3948.53H678.6M550.667 3948.53V4223M678.6 3948.53H806.533M678.6 3948.53V4223M806.533 3948.53H934.467M806.533 3948.53V4223M934.467 3948.53H1062.4M934.467 3948.53V4223M1062.4 3948.53H1190.33M1062.4 3948.53V4223M1190.33 3948.53H1318.27M1190.33 3948.53V4223M1318.27 3948.53H1446.2M1318.27 3948.53V4223M1446.2 3948.53H1574.13M1446.2 3948.53V4223M1574.13 3948.53H1702.07M1574.13 3948.53V4223M1702.07 3948.53H1830M1702.07 3948.53V4223M1830 3948.53V4223H1702.07M38.9333 4223H166.867M166.867 4223H294.8M294.8 4223H422.733M422.733 4223H550.667M550.667 4223H678.6M678.6 4223H806.533M806.533 4223H934.467M934.467 4223H1062.4M1062.4 4223H1190.33M1190.33 4223H1318.27M1318.27 4223H1446.2M1446.2 4223H1574.13M1574.13 4223H1702.07" stroke="url(#paint0_radial_559_130)" stroke-opacity="0.2"/>
</g>
<defs>
<radialGradient id="paint0_radial_559_130" cx="0" cy="0" r="1" gradientUnits="userSpaceOnUse" gradientTransform="translate(871.57 2166.22) rotate(90) scale(1457.76 679.486)">
<stop/>
<stop offset="1" stop-opacity="0"/>
</radialGradient>
</defs>
</svg>
