<svg width="60" height="60" viewBox="0 0 60 60" fill="none" xmlns="http://www.w3.org/2000/svg">
<path d="M30 0C13.435 0 0 13.7721 0 30.7584C0 44.3485 8.595 55.8778 20.5175 59.9456C22.015 60.2301 22.5 59.2766 22.5 58.4666V52.7404C14.155 54.6013 12.4175 49.1109 12.4175 49.1109C11.0525 45.5558 9.085 44.6099 9.085 44.6099C6.3625 42.7004 9.2925 42.7414 9.2925 42.7414C12.305 42.9567 13.89 45.9121 13.89 45.9121C16.565 50.613 20.9075 49.2545 22.62 48.4676C22.8875 46.4811 23.665 45.1226 24.525 44.3562C17.8625 43.5744 10.8575 40.9369 10.8575 29.1538C10.8575 25.7935 12.03 23.0509 13.9475 20.8978C13.6375 20.1211 12.61 16.9915 14.24 12.7571C14.24 12.7571 16.76 11.9317 22.4925 15.9098C24.885 15.228 27.45 14.8871 30 14.8743C32.55 14.8871 35.1175 15.228 37.515 15.9098C43.2425 11.9317 45.7575 12.7571 45.7575 12.7571C47.39 16.994 46.3625 20.1237 46.0525 20.8978C47.9775 23.0509 49.14 25.7961 49.14 29.1538C49.14 40.9676 42.1225 43.5693 35.4425 44.3306C36.5175 45.2841 37.5 47.1552 37.5 50.026V58.4666C37.5 59.2843 37.98 60.2455 39.5025 59.943C51.415 55.8701 60 44.3434 60 30.7584C60 13.7721 46.5675 0 30 0Z" fill="#FFFCFC"/>
</svg>
