<svg width="60" height="60" viewBox="0 0 60 60" fill="none" xmlns="http://www.w3.org/2000/svg">
<path d="M31.0874 35.8228L7.29369 20.6809C6.0636 19.8674 5.20218 18.6034 4.89493 17.161C4.58769 15.7186 4.8592 14.2132 5.65099 12.969C6.44279 11.7248 7.69153 10.8414 9.12832 10.5089C10.5651 10.1764 12.075 10.4215 13.3329 11.1913L30.7891 22.2994L46.4624 11.3278C47.6853 10.4992 49.185 10.1848 50.6377 10.4526C52.0903 10.7204 53.3794 11.5488 54.2264 12.759C55.0733 13.9692 55.4103 15.464 55.1645 16.9206C54.9186 18.3771 54.1097 19.6785 52.9124 20.5436L31.0874 35.8228Z" fill="#EA4435"/>
<path d="M51.5625 49.6875H44.0625V15.9375C44.0625 14.4457 44.6551 13.0149 45.71 11.96C46.7649 10.9051 48.1957 10.3125 49.6875 10.3125C51.1793 10.3125 52.6101 10.9051 53.665 11.96C54.7199 13.0149 55.3125 14.4457 55.3125 15.9375L55.3125 45.9375C55.3125 46.9321 54.9174 47.8859 54.2141 48.5892C53.5109 49.2924 52.5571 49.6875 51.5625 49.6875Z" fill="#00AC47"/>
<path d="M55.2302 15.125C55.2137 15.0125 55.215 14.8976 55.1915 14.7853C55.1555 14.6132 55.0886 14.4542 55.0372 14.288C54.9874 14.0979 54.9275 13.9106 54.8576 13.7268C54.8201 13.6378 54.7624 13.5596 54.7198 13.473C54.6031 13.223 54.4681 12.9821 54.3159 12.752C54.2409 12.6431 54.1472 12.5503 54.0643 12.4472C53.9221 12.2597 53.7683 12.0813 53.604 11.913C53.4793 11.7917 53.3372 11.6902 53.2016 11.5809C53.0575 11.4574 52.9073 11.3412 52.7516 11.2327C52.6029 11.1356 52.4402 11.0608 52.2829 10.9779C52.1171 10.8915 51.9547 10.7973 51.7822 10.7283C51.6155 10.6612 51.4378 10.6185 51.2636 10.5673C51.0894 10.5161 50.9162 10.4548 50.7373 10.4216C50.5157 10.386 50.2922 10.3635 50.0679 10.3541C49.9256 10.3442 49.7846 10.3192 49.6417 10.3203C49.3765 10.3281 49.1121 10.3547 48.8507 10.4C48.7451 10.4158 48.6388 10.4145 48.534 10.4362C48.1802 10.5443 47.8274 10.6556 47.4755 10.77C47.379 10.8112 47.2944 10.8725 47.2009 10.919C46.2487 11.3633 45.4456 12.0739 44.8886 12.9648C44.3317 13.8558 44.0446 14.889 44.0623 15.9395V26.7433L52.9123 20.5477C53.7814 19.9645 54.4628 19.1418 54.874 18.1794C55.2853 17.2169 55.4094 16.1562 55.2302 15.125Z" fill="#FFBA00"/>
<path d="M10.3125 10.3125C11.8043 10.3125 13.2351 10.9051 14.29 11.96C15.3449 13.0149 15.9375 14.4457 15.9375 15.9375V49.6875H8.4375C7.44294 49.6875 6.48911 49.2924 5.78585 48.5891C5.08259 47.8859 4.6875 46.9321 4.6875 45.9375V15.9375C4.6875 14.4457 5.28013 13.0149 6.33502 11.96C7.38992 10.9051 8.82066 10.3125 10.3125 10.3125Z" fill="#4285F4"/>
<path d="M4.77012 15.1264C4.78662 15.0139 4.78531 14.8989 4.80874 14.7866C4.84474 14.6145 4.91168 14.4555 4.96306 14.2894C5.01286 14.0993 5.07282 13.912 5.14268 13.7284C5.18018 13.6393 5.23793 13.5611 5.28068 13.4745C5.39727 13.2244 5.53226 12.9834 5.68455 12.7534C5.75955 12.6444 5.85331 12.5516 5.93618 12.4485C6.07834 12.261 6.23201 12.0826 6.3963 11.9143C6.52099 11.793 6.66312 11.6915 6.79887 11.5822C6.9429 11.4586 7.09309 11.3424 7.24887 11.234C7.39755 11.1369 7.5603 11.0621 7.71762 10.9792C7.88019 10.8873 8.04727 10.8035 8.21824 10.7283C8.38512 10.6612 8.56287 10.6185 8.73687 10.5673C8.91087 10.5161 9.0843 10.4548 9.26318 10.4216C9.48479 10.386 9.7083 10.3635 9.93256 10.3541C10.0751 10.3442 10.2159 10.3192 10.3587 10.3203C10.624 10.3281 10.8883 10.3547 11.1498 10.4C11.2554 10.4158 11.3617 10.4145 11.4667 10.4362C11.6482 10.4825 11.8272 10.538 12.0029 10.6027C12.1797 10.6497 12.354 10.7055 12.5251 10.77C12.6215 10.8112 12.7061 10.8725 12.7998 10.919C13.0429 11.0332 13.2773 11.1648 13.5014 11.3128C14.2526 11.8286 14.867 12.5195 15.2915 13.3258C15.7159 14.1321 15.9378 15.0296 15.9378 15.9408V26.7446L7.0878 20.5494C6.21889 19.966 5.53759 19.1433 5.12628 18.1809C4.71497 17.2185 4.59126 16.1576 4.77012 15.1264Z" fill="#C52528"/>
</svg>
