<svg width="60" height="60" viewBox="0 0 60 60" fill="none" xmlns="http://www.w3.org/2000/svg">
<g clip-path="url(#clip0_558_51)">
<path d="M41.25 0H18.75C13.7772 0 9.00805 1.97544 5.49175 5.49175C1.97544 9.00805 0 13.7772 0 18.75L0 41.25C0 46.2228 1.97544 50.9919 5.49175 54.5083C9.00805 58.0246 13.7772 60 18.75 60H41.25C46.2228 60 50.9919 58.0246 54.5083 54.5083C58.0246 50.9919 60 46.2228 60 41.25V18.75C60 13.7772 58.0246 9.00805 54.5083 5.49175C50.9919 1.97544 46.2228 0 41.25 0ZM54.375 41.25C54.375 48.4875 48.4875 54.375 41.25 54.375H18.75C11.5125 54.375 5.625 48.4875 5.625 41.25V18.75C5.625 11.5125 11.5125 5.625 18.75 5.625H41.25C48.4875 5.625 54.375 11.5125 54.375 18.75V41.25Z" fill="white"/>
<path d="M30 15C26.0218 15 22.2064 16.5804 19.3934 19.3934C16.5804 22.2064 15 26.0218 15 30C15 33.9782 16.5804 37.7936 19.3934 40.6066C22.2064 43.4196 26.0218 45 30 45C33.9782 45 37.7936 43.4196 40.6066 40.6066C43.4196 37.7936 45 33.9782 45 30C45 26.0218 43.4196 22.2064 40.6066 19.3934C37.7936 16.5804 33.9782 15 30 15ZM30 39.375C27.5145 39.372 25.1317 38.3833 23.3742 36.6258C21.6167 34.8683 20.628 32.4855 20.625 30C20.625 24.8288 24.8325 20.625 30 20.625C35.1675 20.625 39.375 24.8288 39.375 30C39.375 35.1675 35.1675 39.375 30 39.375Z" fill="white"/>
<path d="M45.1257 15.8725C46.2296 15.8725 47.1245 14.9776 47.1245 13.8737C47.1245 12.7699 46.2296 11.875 45.1257 11.875C44.0218 11.875 43.127 12.7699 43.127 13.8737C43.127 14.9776 44.0218 15.8725 45.1257 15.8725Z" fill="white"/>
</g>
<defs>
<clipPath id="clip0_558_51">
<rect width="60" height="60" fill="white"/>
</clipPath>
</defs>
</svg>
