<svg width="70" height="70" viewBox="0 0 70 70" fill="none" xmlns="http://www.w3.org/2000/svg">
<path d="M65 56.6667C65 61.27 61.27 65 56.6667 65H13.3333C8.73167 65 5 61.27 5 56.6667V13.3333C5 8.73 8.73167 5 13.3333 5H56.6667C61.27 5 65 8.73 65 13.3333V56.6667Z" fill="#ADCDF3" fill-opacity="0.33"/>
<path d="M17 28.2083H24.2917V53H17V28.2083ZM20.624 25.2917H20.5831C18.4073 25.2917 17 23.67 17 21.6444C17 19.575 18.451 18 20.6662 18C22.8844 18 24.2508 19.575 24.2917 21.6444C24.2917 23.6685 22.8844 25.2917 20.624 25.2917ZM52 53H44.7083V39.7306C44.7083 36.5252 42.9219 34.3377 40.0533 34.3377C37.8644 34.3377 36.6802 35.8135 36.1056 37.2398C35.8956 37.7502 35.9583 39.1619 35.9583 39.875V53H28.6667V28.2083H35.9583V32.0233C37.0098 30.3958 38.6563 28.2083 42.8679 28.2083C48.0858 28.2083 51.9985 31.4896 51.9985 38.8163L52 53Z" fill="white"/>
</svg>
