<svg width="60" height="60" viewBox="0 0 60 60" fill="none" xmlns="http://www.w3.org/2000/svg">
<g clip-path="url(#clip0_558_24)">
<rect width="60" height="60" rx="20" fill="white"/>
<path d="M6.66667 -5C0.223333 -5 -5 0.223333 -5 6.66667V53.3333C-5 59.7767 0.223333 65 6.66667 65H53.3333C59.7767 65 65 59.7767 65 53.3333V6.66667C65 0.223333 59.7767 -5 53.3333 -5H6.66667ZM10.1432 10H23.3724L32.7669 23.3496L44.1667 10H48.3333L34.6484 26.0221L51.5234 50H38.2975L27.3958 34.5117L14.1667 50H10L25.5143 31.8392L10.1432 10ZM16.5234 13.3333L40.0358 46.6667H45.1432L21.6309 13.3333H16.5234Z" fill="black"/>
</g>
<defs>
<clipPath id="clip0_558_24">
<rect width="60" height="60" rx="20" fill="white"/>
</clipPath>
</defs>
</svg>
